<?xml version="1.0" standalone="no"?>
<!DOCTYPE svg PUBLIC "-//W3C//DTD SVG 1.1//EN" "http://www.w3.org/Graphics/SVG/1.1/DTD/svg11.dtd" >
<svg>
<metadata>
Created by FontForge 20090914 at Mon Oct 28 18:23:40 2019
 By www-data
</metadata>
<defs>
<font id="IceCreamHnad-Regular" horiz-adv-x="250" >
  <font-face 
    font-family="Ice Cream Hnad"
    font-weight="400"
    font-stretch="normal"
    units-per-em="1000"
    panose-1="2 0 5 3 0 0 0 0 0 0"
    ascent="800"
    descent="-200"
    cap-height="733"
    bbox="33 -199.999 942.001 800.003"
    underline-thickness="50"
    underline-position="-100"
    unicode-range="U+000D-U+201D"
  />
<missing-glyph horiz-adv-x="364" 
d="M33 0v666h265v-666h-265zM66 33h199v600h-199v-600z" />
    <glyph glyph-name=".notdef" horiz-adv-x="364" 
d="M33 0v666h265v-666h-265zM66 33h199v600h-199v-600z" />
    <glyph glyph-name=".null" 
 />
    <glyph glyph-name=".null" 
 />
    <glyph glyph-name="CR" unicode="&#xd;" 
 />
    <glyph glyph-name="space" unicode=" " 
 />
    <glyph glyph-name="exclam" unicode="!" horiz-adv-x="264" 
d="M74 -37c4.66699 2.66699 11 3.32812 19 1.99512c0.666992 0 16.334 -1.66699 47.001 -5c23.333 -2.66699 37.333 -4.66699 42 -6s8.66699 -4.66602 12 -9.99902c3.33301 -4.66699 5 -13 5 -25v-24c-2 -37.333 -8.33301 -59.666 -19 -66.999c-14 -8.66699 -40 -13 -78 -13
c-23.333 0 -37 2 -41 6c-10 10 -13.667 19.333 -11 28c2 6.66699 3.66699 23.334 5 50.001c1.33301 24.667 3.16602 40.834 5.49902 48.501s6.83301 12.834 13.5 15.501zM61 767.994c8.66699 8.66699 22.9971 13 42.9971 13c2 0 5.33301 -0.166992 10 -0.5
s8.33398 -0.5 11.001 -0.5c58 -2 87 -28.667 87 -80v-47c0 -64 -4 -176.667 -12 -338c-6 -146 -9.66699 -229 -11 -249s-3.66602 -33 -6.99902 -39c-4 -6 -9.16699 -10.167 -15.5 -12.5s-19.166 -3.83301 -38.499 -4.5c-6 -0.666992 -13.333 -1 -22 -1
c-8 0 -16.333 1.66699 -25 5c-8.66699 4 -14.667 9 -18 15c-4.66699 8 -8 41.333 -10 100c-2 126 -3 263.333 -3 412c0 72 0.333008 115.667 1 131l3 89z" />
    <glyph glyph-name="dollar" unicode="$" horiz-adv-x="562" 
d="M284 750h5.99902c3.33301 0.666992 6.33301 1 9 1c43.333 0 68.333 -1.33301 75 -4c5.33301 -1.33301 8.83301 -5.16602 10.5 -11.499s2.5 -19.5 2.5 -39.5v-23v-33c0 -16.667 0.833008 -27.5 2.5 -32.5s5.5 -9.83301 11.5 -14.5
c9.33301 -7.33301 22.666 -21.666 39.999 -42.999s30 -39.666 38 -54.999c5.33301 -8.66699 11.333 -16.667 18 -24c4.66699 -4 7 -12 7 -24c0 -9.33301 -1.33301 -17.333 -4 -24c-2.66699 -4.66699 -8.83398 -10.834 -18.501 -18.501s-18.5 -13.167 -26.5 -16.5
c-4.66699 -2 -9.66699 -3 -15 -3c-12.667 0 -26.334 13.667 -41.001 41c-12 23.333 -27.667 45 -47 65c-8.66699 8.66699 -17.334 13 -26.001 13c-18 0 -27 -6 -27 -18c0 -6 10.667 -21.667 32 -47c42 -47.333 81 -96.333 117 -147c14 -18.667 24 -34.834 30 -48.501
s12.667 -34.834 20 -63.501c6.66699 -22.667 10 -46.667 10 -72c0 -14 -1.66699 -28.333 -5 -43c-6 -23.333 -19.167 -49.666 -39.5 -78.999s-40.5 -51 -60.5 -65l-13 -9l-2 -30c-3.33301 -42 -7.33301 -67 -12 -75c-3.33301 -4.66699 -20.333 -7 -51 -7
s-47.334 1.33301 -50.001 4c-5.33301 7.33301 -9.33301 25 -12 53c-0.666992 3.33301 -1.33398 8 -2.00098 14s-1.16699 10 -1.5 12s-1.16602 4.33301 -2.49902 7s-3.16602 4.5 -5.49902 5.5s-5.83301 1.83301 -10.5 2.5c-24 4.66699 -45 13.667 -63 27
c-7.33301 5.33301 -17.666 12.333 -30.999 21c-15.333 9.33301 -31.166 25.166 -47.499 47.499s-28.166 44.833 -35.499 67.5c-5.33301 16 -8 33.333 -8 52s2.66699 31.667 8 39s15.833 16.5 31.5 27.5s26.167 16.5 31.5 16.5c12 0 23.667 -11 35 -33
c24.667 -46.667 55.334 -82.667 92.001 -108c14.667 -10 29.667 -15.333 45 -16h8c10 0 22.333 3 37 9s24.834 12 30.501 18s8.5 15.667 8.5 29c0 3.33301 -0.666992 11 -2 23c-2.66699 16.667 -6.16699 30.5 -10.5 41.5s-13.5 29.5 -27.5 55.5
c-13.333 24.667 -25.5 43.5 -36.5 56.5s-28.833 29.833 -53.5 50.5c-36 30.667 -65.333 71.667 -88 123c-7.33301 16.667 -11 36 -11 58c0 24 2.16699 41.5 6.5 52.5s14.166 24.167 29.499 39.5c18 17.333 34 29.333 48 36l26 13l-3 20c-2 11.333 -3 26.333 -3 45
c0 12 0.333008 19.5 1 22.5s3.33398 6.16699 8.00098 9.5c6 4.66699 11.667 7.66699 17 9z" />
    <glyph glyph-name="percent" unicode="%" horiz-adv-x="740" 
d="M578 101c-4.66699 10.667 -8.33105 16 -10.998 16c-10.667 0 -22.334 -7.66699 -35.001 -23c-16 -20 -24 -44.667 -24 -74c0 -32 8.66699 -48 26 -48c9.33301 0 20.166 7 32.499 21s19.833 27.667 22.5 41c0.666992 2.66699 1 6.66699 1 12c0 18.667 -4 37 -12 55z
M539.003 219c4.66699 2 10.9971 3.00195 18.9971 3.00195c25.333 0 47 -7 65 -21c15.333 -11.333 29.333 -36.666 42 -75.999c2.66699 -8 4 -22.333 4 -43c0 -45.333 -5 -82 -15 -110c-6.66699 -19.333 -17.167 -38.666 -31.5 -57.999s-27.833 -32.333 -40.5 -39
c-12 -5.33301 -27 -8 -45 -8c-15.333 0 -28.666 2 -39.999 6c-24.667 9.33301 -44 28.666 -58 57.999c-13.333 27.333 -20 53.666 -20 78.999c0 2 0.166992 5.66699 0.5 11s0.5 9.66602 0.5 12.999c0.666992 27.333 3 47.5 7 60.5s13 29.5 27 49.5
c16.667 24 30.834 41.167 42.501 51.5s25.834 18.166 42.501 23.499zM603 729.002c7.33301 2 15.3301 3.00195 23.9971 3.00195c14 0 27.667 -2.33301 41 -7c7.33301 -2.66699 11.833 -4.83398 13.5 -6.50098s2.83398 -4.83398 3.50098 -9.50098
c0.666992 -6 -1.66602 -13.333 -6.99902 -22c-3.33301 -4.66699 -13.666 -24.334 -30.999 -59.001c-24.667 -51.333 -46.667 -89.666 -66 -114.999c-26.667 -36 -50.334 -73.333 -71.001 -112c-6.66699 -13.333 -14.667 -27 -24 -41
c-37.333 -55.333 -65.666 -102 -84.999 -140c-14.667 -29.333 -28.667 -53.333 -42 -72c-14 -19.333 -25.667 -38 -35 -56c-29.333 -50.667 -75 -124.667 -137 -222c-8 -14 -14.667 -22 -20 -24c-4 -1.33301 -13.667 -2 -29 -2c-19.333 0 -38 1 -56 3
c-16.667 2 -25 9.66699 -25 23c0 7.33301 11 26.666 33 57.999c23.333 33.333 51 78 83 134c23.333 38.667 36.333 60 39 64c21.333 26.667 41.333 58.667 60 96c16.667 30 28.334 49.667 35.001 59c38 52.667 68.667 101.334 92 146.001c6.66699 14 18.667 33.667 36 59
c13.333 18 32.166 47.833 56.499 89.5s42.5 71.167 54.5 88.5c21.333 30 34.333 47.667 39 53s10.667 9.33301 18 12zM251.997 644.004c-8 2.66699 -15.332 4.00195 -21.999 4.00195s-11.334 -1.33301 -14.001 -4c-4.66699 -4.66699 -9 -14.834 -13 -30.501
s-6 -30.167 -6 -43.5c0 -20 3.66699 -34.833 11 -44.5s19.666 -16.167 36.999 -19.5c6.66699 -1.33301 13.334 0.666992 20.001 6s11 10.666 13 15.999s4 17 6 35c0.666992 6.66699 1 15.667 1 27c0 16 -2.5 28 -7.5 36s-13.5 14 -25.5 18zM202.998 731.006
c15.333 8 29.001 11.998 41.001 11.998c18.667 0 37.167 -3.83301 55.5 -11.5s32.833 -17.5 43.5 -29.5c16.667 -20 25 -52.333 25 -97c0 -7.33301 -0.666992 -21 -2 -41c-2.66699 -32.667 -13.667 -64.667 -33 -96c-22 -36 -49 -55 -81 -57h-10c-26 0 -50 6.5 -72 19.5
s-37.667 29.833 -47 50.5c-10 22.667 -15 43.334 -15 62.001c0 2 0.166992 5.5 0.5 10.5s0.5 9.16699 0.5 12.5c1.33301 24 3.5 41 6.5 51s11.167 26.333 24.5 49c12 20.667 21.667 34.834 29 42.501s18.666 15.167 33.999 22.5z" />
    <glyph glyph-name="ampersand" unicode="&#x26;" horiz-adv-x="758" 
d="M298 135c-14.667 20.667 -23.334 31 -26.001 31s-13.667 -14.667 -33 -44s-31.666 -50.333 -36.999 -63c-6 -15.333 -9 -32.666 -9 -51.999c0 -21.333 2 -34 6 -38s9.33301 -6 16 -6c7.33301 0 18 2.66699 32 8c12 4.66699 32.333 20 61 46
c26.667 25.333 40 39.666 40 42.999s-4.66699 11.333 -14 24c-2.66699 3.33301 -6 7.83301 -10 13.5l-14 20zM372 677c-17.333 2.66699 -29.335 4.00293 -36.002 4.00293c-49.333 0 -85.333 -22.667 -108 -68c-5.33301 -10.667 -8.33301 -27.334 -9 -50.001v-16
c0 -16.667 1.33301 -30.667 4 -42c2.66699 -14.667 11.834 -40.334 27.501 -77.001s25.167 -55 28.5 -55c2 0 7.66699 6 17 18s18.5 24.667 27.5 38s13.833 20.333 14.5 21c16 18 34.333 47.333 55 88c22.667 43.333 34 73.333 34 90c0 8 -2 16 -6 24
c-5.33301 11.333 -21.666 19.666 -48.999 24.999zM322.998 773.003c6 1.33301 13.667 1.98828 23 1.98828c10.667 0 23 -1.33301 37 -4c33.333 -6.66699 65 -17 95 -31c8 -4 18.167 -13.667 30.5 -29s21.833 -29.666 28.5 -42.999c8.66699 -17.333 13 -34.666 13 -51.999
c0 -22 -9.33301 -51.667 -28 -89c-21.333 -43.333 -46.666 -80.666 -75.999 -111.999c-21.333 -22 -36 -40.333 -44 -55c-12 -19.333 -23.333 -35.333 -34 -48c-18 -21.333 -27 -36 -27 -44c0 -6 14.833 -27.667 44.5 -65s45.5 -56 47.5 -56c2.66699 0 14 10.333 34 31
s39.333 42.334 58 65.001c52 61.333 85 98.333 99 111c3.33301 3.33301 8.66602 5 15.999 5s13 -1.66699 17 -5c12 -8 22.5 -17.667 31.5 -29s13.5 -20.666 13.5 -27.999c0 -14.667 -19.333 -44 -58 -88l-88 -102c-28 -33.333 -42 -52 -42 -56
c0 -1.33301 6.33301 -9.66602 19 -24.999s42.334 -56.333 89.001 -123c24 -34 36 -52.667 36 -56c0 -1.33301 -0.333008 -2.33301 -1 -3c-3.33301 -3.33301 -29.333 -5 -78 -5c-49.333 0 -77.333 1.66699 -84 5c-9.33301 4 -21 19 -35 45c-20 37.333 -32 56 -36 56
c-2.66699 0 -9 -6.66699 -19 -20c-11.333 -14.667 -29.5 -31.167 -54.5 -49.5s-48.5 -32.166 -70.5 -41.499c-14 -6 -32.333 -9 -55 -9c-6 0 -19 0.666992 -39 2c-17.333 1.33301 -28.833 2.83301 -34.5 4.5s-13.5 5.5 -23.5 11.5c-11.333 7.33301 -22.833 16.5 -34.5 27.5
s-19.5 20.833 -23.5 29.5c-9.33301 18.667 -14 42.334 -14 71.001c0 20.667 2.33301 39.334 7 56.001c3.33301 12 8.66602 25.833 15.999 41.5s14 28.5 20 38.5l28 46c12.667 20.667 20.334 33.334 23.001 38.001c14.667 24.667 26.667 43.334 36 56.001
s14 20.334 14 23.001s-4.66699 10 -14 22c-0.666992 0.666992 -13.667 21 -39 61c-36 51.333 -54 104.333 -54 159c0 14.667 1.66699 33.667 5 57c11.333 62 52 117.333 122 166c9.33301 6.66699 25.166 14 47.499 22s40.833 13.333 55.5 16z" />
    <glyph glyph-name="quotesingle" unicode="'" horiz-adv-x="251" 
d="M117 774c7.33301 2 13.999 3 19.999 3c10.667 0 18.334 -2.33301 23.001 -7c14.667 -14.667 26.667 -82.667 36 -204c1.33301 -24 2 -39.333 2 -46c0 -24 -2.66699 -39.667 -8 -47c-4 -4.66699 -16.667 -7 -38 -7s-34.666 1.33301 -39.999 4
c-4.66699 2.66699 -8.83398 8 -12.501 16s-6.5 16 -8.5 24s-4.33301 18.167 -7 30.5s-4.66699 20.833 -6 25.5c-1.33301 5.33301 -7.33301 41 -18 107c-4 22.667 -6 40.667 -6 54c0 16 2.33301 26.667 7 32c4.66699 4.66699 10 7.83398 16 9.50098s13 2.66699 21 3
s14.333 1.16602 19 2.49902z" />
    <glyph glyph-name="parenleft" unicode="(" horiz-adv-x="520" 
d="M259 767l31.9971 33.0029h85c57.333 0 86 -1 86 -3c0 -10 -5.66699 -18.667 -17 -26c-16.667 -10 -35.667 -29 -57 -57c-13.333 -18 -27.333 -35 -42 -51c-20.667 -23.333 -39 -56.333 -55 -99c-7.33301 -21.333 -14.333 -39 -21 -53
c-28.667 -66.667 -50 -141.667 -64 -225c-2.66699 -15.333 -4 -48.333 -4 -99c0 -37.333 1 -62 3 -74c5.33301 -30.667 15 -68 29 -112c4.66699 -14 17 -40.833 37 -80.5s34.333 -65.834 43 -78.501c8 -12.667 11.333 -21 10 -25c-2 -7.33301 -6.5 -12 -13.5 -14
s-23.833 -3 -50.5 -3h-49l-10 16c-0.666992 1.33301 -4.66699 7.66602 -12 18.999s-12.666 20.666 -15.999 27.999c-2.66699 4.66699 -5.66699 10.334 -9 17.001l-8.5 16.5c-2.33301 4.33301 -4.16602 7.5 -5.49902 9.5c-23.333 39.333 -38.666 66.833 -45.999 82.5
s-15.666 39.167 -24.999 70.5c-1.33301 5.33301 -3.5 13.333 -6.5 24s-5 17.5 -6 20.5s-2.33301 8.16699 -4 15.5s-2.83398 12.333 -3.50098 15s-1.5 6.66699 -2.5 12s-1.5 9.83301 -1.5 13.5s-0.166992 8 -0.5 13s-0.5 10.5 -0.5 16.5c0 4 0.166992 11.167 0.5 21.5
s0.5 19.166 0.5 26.499c1.33301 59.333 5 107.5 11 144.5s17.333 80.167 34 129.5c13.333 39.333 33.333 81.333 60 126c30 50.667 63 94 99 130z" />
    <glyph glyph-name="parenright" unicode=")" horiz-adv-x="450" 
d="M136 798c2 0.666992 6.66504 1.00684 13.998 1.00684c18 0 41 -1.83301 69 -5.5s44 -7.16699 48 -10.5c4.66699 -2 9 -7.33301 13 -16c5.33301 -10 13.5 -30.667 24.5 -62s19.5 -53 25.5 -65c8 -16.667 15.667 -36.334 23 -59.001c8.66699 -26 20 -77.333 34 -154l9 -51
l-3 -87c-2.66699 -66.667 -8.83398 -120.167 -18.501 -160.5s-25.5 -83.833 -47.5 -130.5c-22 -47.333 -43 -82 -63 -104c-7.33301 -8.66699 -14.666 -18.334 -21.999 -29.001c-10 -14.667 -16 -22.667 -18 -24c-4 -2 -20.333 -3.66699 -49 -5
c-14 -0.666992 -38.667 -2 -74 -4c-7.33301 -0.666992 -15 -1 -23 -1c-6.66699 0 -11.667 1.66699 -15 5c-4 4 -6 9.66699 -6 17s4 14.666 12 21.999c44.667 39.333 72 66.666 82 81.999c8 12.667 13.333 19.667 16 21c6.66699 5.33301 16.167 23.166 28.5 53.499
s22.5 60.166 30.5 89.499c12 47.333 18.667 101.666 20 162.999c0 3.33301 0.166992 8.66602 0.5 15.999s0.5 13 0.5 17c0 100.667 -7.33301 182 -22 244c-6 24.667 -14.167 50.334 -24.5 77.001s-18.166 42.334 -23.499 47.001c-4.66699 4 -11.167 13 -19.5 27
s-14.166 26.333 -17.499 37c-5.33301 15.333 -9.33301 24.333 -12 27c-4 4.66699 -5.16699 9.16699 -3.5 13.5s5.5 7.16602 11.5 8.49902z" />
    <glyph glyph-name="asterisk" unicode="*" horiz-adv-x="665" 
d="M290 734c5.33301 9.33301 20.334 13.9971 45.001 13.9971c15.333 0 28.666 -2 39.999 -6c12.667 -4 21.167 -9.5 25.5 -16.5s6.5 -19.167 6.5 -36.5c0 -5.33301 -0.666992 -17.333 -2 -36c-2 -30 -3 -54.333 -3 -73s1 -28 3 -28c6 0 21.667 8.33301 47 25
c6 4 19.333 11.333 40 22s34.667 19 42 25c12.667 8.66699 22 13 28 13c5.33301 0 10 -2.66699 14 -8c4.66699 -4.66699 7.66699 -10 9 -16l12 -27c8 -18 12 -29.333 12 -34s-6 -10 -18 -16c-12.667 -7.33301 -30 -18 -52 -32c-14 -8.66699 -35 -20.667 -63 -36
c-18 -9.33301 -27.667 -15.666 -29 -18.999s3 -10.333 13 -21c10.667 -12 27 -36.667 49 -74c23.333 -38.667 36 -58.667 38 -60c2.66699 -1.33301 5 -5.33301 7 -12c1.33301 -5.33301 2 -8.66602 2 -9.99902c0 -16 -15 -26.333 -45 -31
c-15.333 -3.33301 -23.666 -5.33301 -24.999 -6c-2.66699 -2 -6 -3 -10 -3c-4.66699 0 -11.334 3.66699 -20.001 11c-21.333 18.667 -49.333 56.667 -84 114c-17.333 26.667 -26.333 40 -27 40c-2 0 -16.167 -18 -42.5 -54s-45.5 -63.667 -57.5 -83
c-12.667 -20.667 -25.334 -31 -38.001 -31c-9.33301 0 -26.666 5.33301 -51.999 16c-19.333 8 -29 17 -29 27c0 9.33301 9.33301 26 28 50c10.667 13.333 27.334 38.833 50.001 76.5s34 58.834 34 63.501c0 2 -2 4 -6 6c-1.33301 0.666992 -18.666 7.66699 -51.999 21
c-66.667 27.333 -105.334 46.333 -116.001 57c-6.66699 6 -10 12.667 -10 20c0 9.33301 5.66699 22.666 17 39.999c8.66699 14 21.667 21 39 21h9c9.33301 -1.33301 27.166 -7.66602 53.499 -18.999s45.833 -21.333 58.5 -30c20 -13.333 35 -20 45 -20
c3.33301 0 5 17.667 5 53c0 71.333 3 112.333 9 123z" />
    <glyph glyph-name="plus" unicode="+" horiz-adv-x="644" 
d="M285 547c2.66699 0.666992 17.6699 0.999023 45.0029 0.999023c23.333 -0.666992 38.833 -3.16699 46.5 -7.5s11.5 -14.5 11.5 -30.5c0 -4 -0.666992 -13.333 -2 -28c-2 -20 -3 -44.667 -3 -74c0 -21.333 0.666992 -38.666 2 -51.999l2 -14l87 -1
c42.667 -1.33301 68 -2.33301 76 -3s13.667 -2.66699 17 -6c5.33301 -5.33301 10.166 -17.833 14.499 -37.5s6.5 -37.834 6.5 -54.501c0 -13.333 -1.66699 -22.666 -5 -27.999c-6 -8.66699 -30.667 -13 -74 -13c-21.333 0 -37.833 -1.83301 -49.5 -5.5
s-25.834 -5.83398 -42.501 -6.50098l-33 -2l-2 -106c-0.666992 -71.333 -2.66699 -109.333 -6 -114c-4 -6 -8.66699 -9.66699 -14 -11s-18 -2.66602 -38 -3.99902c-2.66699 0 -6.5 -0.166992 -11.5 -0.5s-8.5 -0.5 -10.5 -0.5c-17.333 0 -28.5 2.66699 -33.5 8
s-7.5 16 -7.5 32v7v9c0 11.333 -1.33301 23 -4 35c-2.66699 10 -4 26.667 -4 50v29l1 60l-35 -1h-11c-3.33301 0 -36 3.33301 -98 10c-24 3.33301 -39.667 10.333 -47 21c-3.33301 4.66699 -5.33301 20 -6 46c0 3.33301 -0.166992 8 -0.5 14s-0.5 10 -0.5 12
c0 20 3.33301 32.333 10 37c12 8 57.333 13.333 136 16c40 1.33301 60.333 2.33301 61 3s1 47 1 139v47c0 5.33301 2.16699 10.5 6.5 15.5s9.16602 7.83301 14.499 8.5z" />
    <glyph glyph-name="comma" unicode="," horiz-adv-x="269" 
d="M56 20c3.33301 12.667 12.1689 23.333 26.502 32s30.166 13 47.499 13c8 0 16 -1 24 -3c21.333 -5.33301 36.333 -14.666 45 -27.999c12 -17.333 18 -37.666 18 -60.999c0 -40.667 -7.66699 -76.334 -23 -107.001c-4 -8 -11.833 -19 -23.5 -33
s-19.834 -22.333 -24.501 -25c-6.66699 -3.33301 -12 -5 -16 -5c-6.66699 0 -12.667 2.66699 -18 8c-4 4 -6 8.66699 -6 14c0 6.66699 0.333008 13.667 1 21c1.33301 16 2 26.333 2 31c0 21.333 -7.66699 40.666 -23 57.999c-21.333 25.333 -32 48 -32 68
c0 3.33301 0.666992 9 2 17z" />
    <glyph glyph-name="hyphen" unicode="-" horiz-adv-x="467" 
d="M60 242c0.666992 17.333 2.00195 27.834 4.00195 31.501s8 7.16699 18 10.5c4 1.33301 8 1.33301 12 0c2 -0.666992 31.667 -2.16699 89 -4.5s87 -3.83301 89 -4.5c5.33301 -2 26 -3.66699 62 -5c22 -0.666992 38.167 -2 48.5 -4s17.833 -5 22.5 -9s7 -10.333 7 -19
c0 -2.66699 -0.666992 -8.66699 -2 -18c-1.33301 -10.667 -2 -16.667 -2 -18c0 -4 1 -8.66699 3 -14c2.66699 -6 4 -11.667 4 -17c0 -6.66699 -3.66699 -13.667 -11 -21c-8.66699 -8 -17.334 -12 -26.001 -12s-17 -1.33301 -25 -4c-6.66699 -3.33301 -20.667 -5 -42 -5
c-10.667 0 -21 -0.666992 -31 -2s-17 -2 -21 -2c-9.33301 0 -18 1 -26 3c-10.667 2.66699 -21.667 4 -33 4c-8.66699 0 -15.334 -0.333008 -20.001 -1c-2 0 -5.5 -0.166992 -10.5 -0.5s-8.83301 -0.5 -11.5 -0.5c-50 0 -81 2.66699 -93 8c-8.66699 4 -13 12.333 -13 25
c0 6 1 14 3 24c3.33301 15.333 5 33.666 5 54.999z" />
    <glyph glyph-name="period" unicode="." horiz-adv-x="268" 
d="M95 39c8 3.33301 15 4.99902 21 4.99902c1.33301 0 3.5 -0.166992 6.5 -0.5s5.5 -0.5 7.5 -0.5c30 -2.66699 50.333 -8.33398 61 -17.001c15.333 -12.667 23 -32 23 -58c0 -52.667 -24.667 -79 -74 -79c-26.667 0.666992 -47.667 8.33398 -63 23.001
s-23 34.334 -23 59.001c0 33.333 13.667 56 41 68z" />
    <glyph glyph-name="slash" unicode="/" horiz-adv-x="737" 
d="M159 -124c-4.66699 0 -14.502 -0.669922 -29.502 -2.00293s-26.167 -2 -33.5 -2c-26.667 0 -40 7.66699 -40 23c0 6 8.16699 25.333 24.5 58s33.5 64.334 51.5 95.001c16.667 27.333 28 47.333 34 60c24.667 53.333 43 89 55 107c14.667 22 33.667 54.333 57 97
s40 72.334 50 89.001l82 139c14 23.333 27.333 44 40 62c10.667 14.667 24.5 38.167 41.5 70.5s27.5 55.5 31.5 69.5c2.66699 10.667 6.33398 17 11.001 19c2.66699 1.33301 27.667 2 75 2h21c26 0 41 -0.666992 45 -2s6 -6 6 -14c0 -4 -3.5 -13 -10.5 -27
s-12.833 -23.667 -17.5 -29c-3.33301 -3.33301 -9.66602 -11.666 -18.999 -24.999c-8 -12 -25 -40.667 -51 -86s-43 -76.333 -51 -93c-3.33301 -8.66699 -11 -21.667 -23 -39l-54.5 -90l-56.5 -94c-49.333 -81.333 -87.333 -154.333 -114 -219
c-8.66699 -21.333 -20 -44 -34 -68s-25.333 -46 -34 -66c-7.33301 -16 -14 -25.833 -20 -29.5s-18.333 -5.5 -37 -5.5z" />
    <glyph glyph-name="colon" unicode=":" horiz-adv-x="264" 
d="M105 192c4.66699 2.66699 12.3369 4.00098 23.0039 4.00098c13.333 0 23.666 -2 30.999 -6c9.33301 -4.66699 18.666 -11.5 27.999 -20.5s15.333 -16.833 18 -23.5c3.33301 -6.66699 5 -15.334 5 -26.001c0 -19.333 -5.33301 -40 -16 -62
c-8 -16.667 -25.333 -27.667 -52 -33c-12.667 -2.66699 -23.334 -4 -32.001 -4s-16 1.33301 -22 4c-22.667 10 -34 29.667 -34 59v6c1.33301 17.333 7.66602 37.333 18.999 60s22 36.667 32 42zM109.003 516.001c8 4 17.333 5.99902 28 5.99902c18.667 0 34 -5.33301 46 -16
c4 -4 8.66699 -10.667 14 -20s8 -17.333 8 -24c0 -1.33301 -0.166992 -3.66602 -0.5 -6.99902s-0.5 -6 -0.5 -8c-2.66699 -52.667 -23.667 -79 -63 -79c-17.333 0 -33 6 -47 18c-14.667 12.667 -22 32 -22 58c0 36.667 12.333 60.667 37 72z" />
    <glyph glyph-name="semicolon" unicode=";" horiz-adv-x="277" 
d="M125 226c2 0.666992 6.33398 1 13.001 1c14.667 0 28 -2.33301 40 -7c30 -16 45 -46.667 45 -92c0 -14 -1.33301 -27.333 -4 -40c-10 -46 -34.333 -81.667 -73 -107c-10 -7.33301 -18.333 -11 -25 -11c-4.66699 0 -9.33398 2.33301 -14.001 7
c-5.33301 5.33301 -8 13.333 -8 24c0 6 1 13 3 21c1.33301 8 2 13.333 2 16c0 12 -6.33301 24.667 -19 38c-19.333 22 -29 43 -29 63c0 24.667 9.66699 45.667 29 63c16.667 14 30 22 40 24zM99.001 540c5.33301 2 12.001 3 20.001 3c23.333 0 43.333 -5 60 -15
c13.333 -8.66699 21.666 -22.334 24.999 -41.001v-5c0 -13.333 -5.16699 -29.833 -15.5 -49.5s-20.833 -33.167 -31.5 -40.5c-7.33301 -4.66699 -18 -7 -32 -7c-14.667 0 -27 3 -37 9c-22.667 14.667 -34 36.334 -34 65.001c0 16 4 32 12 48c8 16.667 19 27.667 33 33z" />
    <glyph glyph-name="question" unicode="?" horiz-adv-x="610" 
d="M229 20c4 2 23.999 3.00098 59.999 3.00098c34.667 0 56.334 -2 65.001 -6s13 -16 13 -36c0 -4.66699 -0.666992 -17 -2 -37c-2.66699 -34.667 -5 -54.667 -7 -60c-3.33301 -7.33301 -10 -12.333 -20 -15s-28.333 -4.33398 -55 -5.00098l-48 -1l-10 9
c-8.66699 8.66699 -13 38 -13 88c0 35.333 5.66699 55.333 17 60zM289.999 770.001c16 1.33301 37.6719 1.99805 65.0049 1.99805l44 -1l30 -16c25.333 -14 45.666 -29.833 60.999 -47.5s30 -42.834 44 -75.501c13.333 -30.667 20 -60.667 20 -90
c0 -8.66699 -0.333008 -15.334 -1 -20.001c-5.33301 -51.333 -38 -107.666 -98 -168.999c-34.667 -34.667 -58 -65.667 -70 -93c-5.33301 -12 -11.166 -32.333 -17.499 -61s-9.5 -48.334 -9.5 -59.001c0 -29.333 -4.66699 -48.666 -14 -57.999
c-5.33301 -4.66699 -19.333 -7 -42 -7c-24.667 0 -43.334 2 -56.001 6c-14.667 4.66699 -23.334 9.83398 -26.001 15.501s-4 20.834 -4 45.501c1.33301 66 8.33301 115.333 21 148c8.66699 24.667 30.667 51.334 66 80.001c20 16.667 33 28.334 39 35.001
c16 18 29 41.333 39 70s15 57.334 15 86.001c0 25.333 -3 42.833 -9 52.5s-20.333 20.167 -43 31.5c-17.333 8 -30 12 -38 12c-10.667 0 -26.334 -6.33301 -47.001 -19c-29.333 -18 -54.333 -42.667 -75 -74c-8.66699 -14 -14 -21.333 -16 -22
c-2.66699 -1.33301 -6.33398 -6 -11.001 -14c-4.66699 -8.66699 -9.66699 -13 -15 -13c-2.66699 0 -5.16699 0.666992 -7.5 2s-5.33301 3.66602 -9 6.99902s-6.16699 5.66602 -7.5 6.99902c-8 4.66699 -20.333 16.5 -37 35.5s-25 30.5 -25 34.5c0 3.33301 6.66699 16 20 38
c25.333 42 51.666 72 78.999 90c11.333 7.33301 32 15.5 62 24.5s54.333 14.5 73 16.5z" />
    <glyph glyph-name="A" unicode="A" horiz-adv-x="870" 
d="M501 589c-4 14.667 -7 21.6689 -9 21.002l-2 -2c0 -0.666992 -1 -3.66699 -3 -9s-4.66699 -13.333 -8 -24s-6.66602 -20.334 -9.99902 -29.001c-14 -44.667 -24.667 -75.334 -32 -92.001c-6.66699 -16 -10 -26.667 -10 -32c0 -3.33301 1.66699 -5 5 -5
c2.66699 0 5 0.333008 7 1c0.666992 0 8.16699 0.5 22.5 1.5s28.5 2.16699 42.5 3.5s21.333 2.33301 22 3c1.33301 1.33301 -0.333984 10.333 -5.00098 27c-2.66699 10 -6 32.667 -10 68s-7.33301 58 -10 68zM401 785.002l2.99902 14.9941h225l2 -10
c0.666992 -2.66699 2.33398 -16 5.00098 -40c3.33301 -36 9 -69 17 -99c20 -81.333 38.333 -170.666 55 -267.999c6 -33.333 10.333 -64.666 13 -93.999c6.66699 -50 15.334 -98.667 26.001 -146l9.5 -41.5c3.66699 -16.333 5.5 -24.833 5.5 -25.5
c10.667 -46 16 -70.333 16 -73s2 -10.667 6 -24c4.66699 -12.667 10.834 -34.167 18.501 -64.5s11.5 -48.166 11.5 -53.499c0 -4.66699 -1.33301 -9 -4 -13c-2.66699 -3.33301 -10.834 -6.66602 -24.501 -9.99902s-26.167 -5 -37.5 -5c-8.66699 0 -22.667 -1.5 -42 -4.5
s-34 -4.5 -44 -4.5c-8.66699 0 -17 1 -25 3c-9.33301 2.66699 -15.333 7 -18 13c-3.33301 7.33301 -8 23.5 -14 48.5s-10 45.833 -12 62.5c-2 14 -4.33301 29.5 -7 46.5s-5 36.167 -7 57.5c-7.33301 52 -15 95.667 -23 131c-5.33301 22.667 -8 36.334 -8 41.001
c0 2.66699 -0.166992 5 -0.5 7s-0.833008 3.5 -1.5 4.5s-1.33398 1.83301 -2.00098 2.5s-2.16699 1.33398 -4.5 2.00098s-4.33301 1 -6 1s-4.5 0.166992 -8.5 0.5s-7.33301 0.5 -10 0.5c-3.33301 0 -21 1.33301 -53 4h-11c-16 0 -31.667 -1.5 -47 -4.5
s-24.333 -6.5 -27 -10.5c-4 -8.66699 -9.66699 -23 -17 -43c-11.333 -33.333 -25.333 -68 -42 -104c-14.667 -32.667 -27 -63 -37 -91c-34 -93.333 -55.333 -142.333 -64 -147c-2.66699 -1.33301 -17.5 -3.16602 -44.5 -5.49902s-41.5 -3.83301 -43.5 -4.5
c-10.667 -4 -26.667 -6 -48 -6c-1.33301 0 -3 0.166992 -5 0.5s-3.33301 0.5 -4 0.5c-5.33301 1.33301 -9.33301 4.66602 -12 9.99902c-2 2.66699 -3 5.33398 -3 8.00098c0 1.33301 1.66699 8.66602 5 21.999c5.33301 18 9.33301 28.333 12 31
c5.33301 6.66699 12.333 21.5 21 44.5s18.167 51.333 28.5 85s16.833 54.5 19.5 62.5c4.66699 13.333 12.334 38.666 23.001 75.999c6 22 19.667 61.833 41 119.5s32.666 88.834 33.999 93.501c21.333 62 43.666 116.333 66.999 163c12.667 26 30.334 67.667 53.001 125
s36 94.333 40 111z" />
    <glyph glyph-name="B" unicode="B" horiz-adv-x="848" 
d="M333 229c-7.33301 1.33301 -15.332 2.00098 -23.999 2.00098c-17.333 0 -49.333 -2.33301 -96 -7l-15 -3l-1 -91c0 -8.66699 -0.166992 -21 -0.5 -37s-0.5 -27 -0.5 -33c0 -8 0.166992 -16.5 0.5 -25.5s0.5 -13.833 0.5 -14.5l1 -19l20 -3
c14.667 -3.33301 60.667 -5 138 -5c75.333 0 126 1.66699 152 5s50.667 11 74 23c14 7.33301 24.167 14.666 30.5 21.999s11.5 17.333 15.5 30c4.66699 16.667 7 29.334 7 38.001c0 23.333 -11.333 46.666 -34 69.999c-12 12.667 -26.667 22 -44 28
c-18 5.33301 -43.667 10.333 -77 15c-30.667 4.66699 -51.334 7 -62.001 7c-2.66699 0 -12 -0.666992 -28 -2c-9.33301 -1.33301 -20.333 -2 -33 -2c-10.667 0 -18.667 0.666992 -24 2zM355.001 663.001c-50.667 1.33301 -88.999 1.99707 -114.999 1.99707
c-21.333 0 -32.333 -0.333008 -33 -1s-1 -25.667 -1 -75c0 -55.333 -1 -94.333 -3 -117c0 -4 -0.166992 -8.66699 -0.5 -14s-0.666016 -9.5 -0.999023 -12.5s-0.5 -5.5 -0.5 -7.5c0 -6 1.33301 -10 4 -12c3.33301 -2.66699 17.666 -4 42.999 -4c61.333 0 103 4 125 12
c10.667 4 21.667 6.66699 33 8c26 2.66699 51.667 12.334 77 29.001c23.333 16.667 37.666 43.334 42.999 80.001c1.33301 10.667 2 18 2 22c0 30.667 -11.333 52 -34 64c-26.667 14.667 -73 23.334 -139 26.001zM115.002 796.998
c2.66699 1.33301 11.665 1.99902 26.998 1.99902c3.33301 0 9 -0.166992 17 -0.5s14 -0.5 18 -0.5c16.667 -0.666992 87.334 -1.66699 212.001 -3c102.667 -1.33301 162.334 -4 179.001 -8c4 -0.666992 11.5 -2.33398 22.5 -5.00098s18.5 -4.66699 22.5 -6
c17.333 -4.66699 29.833 -9.66699 37.5 -15s18.5 -17 32.5 -35c14.667 -19.333 24.167 -34.5 28.5 -45.5s7.83301 -27.5 10.5 -49.5c1.33301 -17.333 2 -29.666 2 -36.999c0 -26.667 -5.33301 -55.667 -16 -87c-12 -34 -28 -61.5 -48 -82.5s-49 -40.833 -87 -59.5
c-24.667 -12.667 -37 -20 -37 -22c0 -1.33301 9 -2.66602 27 -3.99902s36.333 -2.5 55 -3.5s28.667 -1.83301 30 -2.5c41.333 -14.667 69.666 -33 84.999 -55c30 -40.667 49.667 -98.667 59 -174c2 -13.333 3 -26 3 -38c0 -40.667 -10.667 -75.667 -32 -105
c-8.66699 -11.333 -16.167 -20.5 -22.5 -27.5l-15.5 -17.5c-4 -4.66699 -10 -8.66699 -18 -12l-16.5 -7c-3 -1.33301 -11.167 -3.83301 -24.5 -7.5s-23.333 -6.5 -30 -8.5c-26 -8 -49.667 -13 -71 -15c-28 -2.66699 -58.667 -4 -92 -4c-36 0 -63.333 1.33301 -82 4
c-8.66699 2 -29 3 -61 3c-41.333 0 -88.333 -1.33301 -141 -4c-3.33301 0 -8.16602 -0.166992 -14.499 -0.5s-10.833 -0.5 -13.5 -0.5c-10.667 0 -20.667 0.666992 -30 2c-17.333 3.33301 -30.333 5.33301 -39 6c-12 1.33301 -20.167 3.33301 -24.5 6s-7.5 7.66699 -9.5 15
c-4 14 -6 49 -6 105c0 48 4.66699 193.333 14 436c8 211.333 15.667 326.333 23 345c2 6.66699 10.667 12.667 26 18z" />
    <glyph glyph-name="C" unicode="C" horiz-adv-x="891" 
d="M445 796c10.667 2.66699 27.3301 4.00293 49.9971 4.00293h7c37.333 0 85.333 -9.33301 144 -28c32 -10.667 54.333 -20.834 67 -30.501s26.667 -27.5 42 -53.5c4 -7.33301 13 -20.666 27 -39.999c7.33301 -10 14.666 -23 21.999 -39s11 -27 11 -33
c0 -4.66699 -6.16699 -10 -18.5 -16s-28.5 -12.5 -48.5 -19.5l-36 -12.5c-24 -10 -38 -15 -42 -15c-10 0 -16.667 6.66699 -20 20c-2.66699 13.333 -10.667 28.5 -24 45.5s-25.666 28.5 -36.999 34.5c-19.333 10 -53.666 18.333 -102.999 25c-14 2.66699 -27.667 4 -41 4
s-25.666 -1.33301 -36.999 -4c-29.333 -6 -56 -19.333 -80 -40c-36.667 -32.667 -63.334 -77 -80.001 -133c-14.667 -51.333 -22.667 -97.333 -24 -138c0 -4 -0.166992 -9.33301 -0.5 -16s-0.5 -11.334 -0.5 -14.001c0 -35.333 5.66699 -66.666 17 -93.999l18 -46
c10 -26 27 -44.667 51 -56c42 -20 79.333 -31.333 112 -34c4 -0.666992 9 -1 15 -1c8 0 23.333 3.33301 46 10l51 17c8 4 14 6 18 6c3.33301 0 15.666 5.33301 36.999 16c20.667 10 38 22.667 52 38c24 25.333 40.667 53.666 50 84.999c2 8 5 14 9 18
c6.66699 5.33301 33.334 8 80.001 8c30.667 0 48.334 -1.66699 53.001 -5c4.66699 -4 7 -13 7 -27c0 -16 -2.66699 -34.333 -8 -55s-12 -35.667 -20 -45c-2 -2 -7.16699 -8.83301 -15.5 -20.5s-14.833 -20.5 -19.5 -26.5c-22.667 -30.667 -41.834 -53.334 -57.501 -68.001
s-36.834 -30.667 -63.501 -48c-23.333 -14.667 -44.166 -25 -62.499 -31s-42.833 -10.333 -73.5 -13c-12.667 -1.33301 -46.667 -2 -102 -2s-89.666 0.666992 -102.999 2c-22 1.33301 -39 5.66602 -51 12.999c-32 17.333 -60.333 38 -85 62
c-11.333 10.667 -27 28.334 -47 53.001s-32.667 42 -38 52c-12 20.667 -24 72.667 -36 156c-2.66699 21.333 -4 39.666 -4 54.999c0 74.667 9.33301 135.667 28 183c19.333 50 33.333 81.667 42 95c20 34 38.667 60 56 78c12.667 13.333 30.5 28.5 53.5 45.5
s41.167 28.833 54.5 35.5c34.667 16 87.334 30.333 158.001 43z" />
    <glyph glyph-name="D" unicode="D" horiz-adv-x="812" 
d="M316 619c-35.333 0 -68 2.66895 -98 8.00195c-4.66699 1.33301 -7.66699 0.666016 -9 -2.00098c-0.666992 -0.666992 -1 -35.334 -1 -104.001c0 -276 1.33301 -431.333 4 -466l2 -30l40 1c62 2 109.667 9 143 21c50 18.667 85.667 37.334 107 56.001c4.66699 4 9 8 13 12
s7.33301 7.66699 10 11s5.66699 7.66602 9 12.999l7.5 12c1.66699 2.66699 3.83398 7.5 6.50098 14.5l5.5 14.5l6.5 17c3.33301 8.66699 5.66602 14.334 6.99902 17.001c14 36.667 21 66.667 21 90c0 17.333 -2.33301 38.666 -7 63.999c-18 86.667 -37.333 143.667 -58 171
c-10 13.333 -29.167 27.5 -57.5 42.5s-52.833 24.167 -73.5 27.5c-34.667 6.66699 -60.667 10 -78 10zM295 768.002l15.9951 0.000976562c69.333 0 121.333 -7.33301 156 -22c10 -4.66699 27 -10.667 51 -18c56 -16.667 98.333 -35.334 127 -56.001
c18 -12.667 44.333 -52.667 79 -120c4 -8 10 -27 18 -57c11.333 -42.667 17 -86 17 -130c0 -10 -0.666992 -27.667 -2 -53c-2.66699 -34 -5 -55.667 -7 -65c-7.33301 -30 -20.166 -66.667 -38.499 -110s-35.5 -77.666 -51.5 -102.999
c-3.33301 -6 -7.33301 -11.833 -12 -17.5s-10.167 -11.334 -16.5 -17.001s-11.666 -10.167 -15.999 -13.5l-19 -14l-16.5 -12c-26 -20 -79 -41 -159 -63l-22.5 -7c-6.33301 -2 -10.666 -3.5 -12.999 -4.5s-6.33301 -1.83301 -12 -2.5s-14.167 -1.33398 -25.5 -2.00098
c-25.333 -1.33301 -48.333 -3.66602 -69 -6.99902c-15.333 -2 -27.333 -3 -36 -3c-5.33301 0 -30.333 1.66699 -75 5c-16 1.33301 -29.667 2 -41 2c-4 0 -8.83301 -0.166992 -14.5 -0.5s-9.16699 -0.5 -10.5 -0.5c-5.33301 -0.666992 -11 -1 -17 -1
c-7.33301 0 -13.666 2.33301 -18.999 7c-6 5.33301 -9 15.666 -9 30.999c0 9.33301 -1.33301 48.666 -4 117.999c-1.33301 50.667 -2 80 -2 88v9c0.666992 0.666992 2.33398 57 5.00098 169c4 228.667 7.66699 366.334 11 413.001c1.33301 16 4.5 26.833 9.5 32.5
s14.833 9.83398 29.5 12.501c20 4 83 8 189 12z" />
    <glyph glyph-name="E" unicode="E" horiz-adv-x="802" 
d="M136 757c44.667 6 76.9951 9 96.9951 9c24.667 0 47.667 -0.333008 69 -1c51.333 -0.666992 84.666 -3 99.999 -7c18.667 -5.33301 49 -8 91 -8c24.667 0 53.667 1 87 3c52 3.33301 84.333 5 97 5c15.333 0 27 -1.33301 35 -4c8.66699 -3.33301 13.834 -7.5 15.501 -12.5
s2.5 -18.167 2.5 -39.5c0 -20.667 -1.33301 -35.5 -4 -44.5s-8 -16.5 -16 -22.5c-5.33301 -3.33301 -14.333 -5 -27 -5h-29c-17.333 0.666992 -61.333 1 -132 1c-94.667 0 -180 -0.666992 -256 -2c-53.333 -0.666992 -80.666 -2.66699 -81.999 -6
c-1.33301 -2.66699 -2 -20 -2 -52c0 -6.66699 0.166992 -18.834 0.5 -36.501s0.5 -31.834 0.5 -42.501l3 -127l60 -2c28 -0.666992 51.833 -2.16699 71.5 -4.5s40.167 -3.5 61.5 -3.5c22 0 41.333 0.333008 58 1c74 1.33301 115.667 2.33301 125 3c6 0.666992 12.667 1 20 1
c6 0 10.667 -2 14 -6c4 -4 6 -10.667 6 -20c0 -10.667 -1.33301 -25.667 -4 -45c-4 -30 -10 -48.667 -18 -56c-5.33301 -4.66699 -19 -7 -41 -7c-18 0 -46.333 1.33301 -85 4c-27.333 2.66699 -70.666 4 -129.999 4c-48 0 -83 -1 -105 -3
c-19.333 -1.33301 -29 -3.66602 -29 -6.99902c0 -2 0.166992 -7.16699 0.5 -15.5s0.833008 -19.666 1.5 -33.999s1 -28.5 1 -42.5c1.33301 -54.667 3.33301 -82.667 6 -84s8.33398 -2 17.001 -2c2 0 5.33301 0.166992 10 0.5s8.33398 0.5 11.001 0.5
c5.33301 0.666992 12.666 1 21.999 1c13.333 0 25.666 -1.33301 36.999 -4c16.667 -3.33301 38.334 -5 65.001 -5c78 0 181 5.33301 309 16c28.667 1.33301 47.667 2.66602 57 3.99902c1.33301 0 2.66602 0.166992 3.99902 0.5s2.33301 0.5 3 0.5
c5.33301 0 8.83301 -2.5 10.5 -7.5s2.83398 -15.167 3.50098 -30.5v-26c0 -44 -1.66699 -70 -5 -78c-3.33301 -6.66699 -10.166 -11 -20.499 -13s-33.833 -3 -70.5 -3h-41c-77.333 1.33301 -127.333 2 -150 2c-10 0 -38.667 -0.833008 -86 -2.5s-81.333 -2.5 -102 -2.5
c-18 0 -29.667 0.333008 -35 1c-20 1.33301 -41 2 -63 2h-34c-5.33301 0 -12.333 -0.166992 -21 -0.5s-14.667 -0.5 -18 -0.5c-21.333 0 -35.166 1.83301 -41.499 5.5s-9.5 11.5 -9.5 23.5c0 1.33301 0.166992 4.16602 0.5 8.49902s0.5 7.83301 0.5 10.5
c4.66699 88.667 7 228 7 418c0 12 -0.166992 28.667 -0.5 50s-0.5 36.333 -0.5 45c0 12.667 -0.166992 30.334 -0.5 53.001s-0.5 38.667 -0.5 48c0 119.333 3.66699 182 11 188c4 2.66699 7.66699 3.33398 11 2.00098h4c3.33301 0 21 1.33301 53 4z" />
    <glyph glyph-name="F" unicode="F" horiz-adv-x="797" 
d="M577 778c17.333 2.66699 46.332 4.00391 86.999 4.00391h63c11.333 -15.333 17 -28 17 -38c0 -3.33301 -0.333008 -6 -1 -8c-0.666992 -1.33301 -1 -6 -1 -14c0 -14 0.333008 -25 1 -33c0.666992 -6.66699 1 -14.667 1 -24c0 -11.333 -1.66699 -18.333 -5 -21
s-11 -4.33398 -23 -5.00098c-3.33301 0 -10.5 -0.166992 -21.5 -0.5s-18.833 -0.5 -23.5 -0.5c-74 -1.33301 -122.333 -4.33301 -145 -9c-17.333 -4 -65.666 -6 -144.999 -6c-37.333 0 -66.666 0.333008 -87.999 1h-35c-26 0 -40 -1 -42 -3
c-1.33301 -1.33301 -3 -42.666 -5 -123.999l-3 -120l14 -2c26.667 -4 77.334 -6.33301 152.001 -7c58.667 0 97 -1 115 -3c22 -2 34.833 -5.33301 38.5 -10s5.5 -19.667 5.5 -45c0 -34 -4.66699 -53 -14 -57c-18.667 -7.33301 -85 -12.333 -199 -15c-68 -2 -103 -4 -105 -6
c-2 -4 -3 -66 -3 -186c0 -90.667 -0.333008 -143.834 -1 -159.501s-2.33398 -24.167 -5.00098 -25.5c-4.66699 -2.66699 -11.667 -3.33398 -21 -2.00098c-16 2 -38 3 -66 3c-34.667 0 -54 2 -58 6c-2 2 -3.33301 4 -4 6s-1.33398 9.33301 -2.00098 22s-1 30.334 -1 53.001
v104c0 144.667 -0.666992 233 -2 265c-1.33301 41.333 -2 85 -2 131c0 193.333 2.33301 294 7 302c2 3.33301 5.5 5.66602 10.5 6.99902s21.833 3.66602 50.5 6.99902c43.333 5.33301 143.333 8.66602 300 9.99902c97.333 1.33301 150.333 2.33301 159 3z" />
    <glyph glyph-name="G" unicode="G" horiz-adv-x="934" 
d="M422 774c22.667 2.66699 41.999 3.99707 57.999 3.99707c26 0 52 -2 78 -6c24 -3.33301 55.667 -12.333 95 -27c26.667 -9.33301 47 -15.666 61 -18.999c32 -8.66699 53.667 -18.334 65 -29.001c16 -16 35 -54 57 -114c10 -28.667 15 -48.334 15 -59.001
c0 -13.333 -5.33301 -22.833 -16 -28.5s-29.667 -10.167 -57 -13.5c-4 -0.666992 -10.5 -1.66699 -19.5 -3s-15.5 -2 -19.5 -2c-14 0 -23.333 10.667 -28 32c-2.66699 10 -7 21 -13 33c-21.333 37.333 -60.666 65.333 -117.999 84c-14.667 4.66699 -27.334 7 -38.001 7
s-20 -0.333008 -28 -1c-32.667 -1.33301 -61 -4 -85 -8c-30 -4.66699 -52.833 -10.5 -68.5 -17.5s-31.834 -18.833 -48.501 -35.5c-35.333 -35.333 -63.666 -84 -84.999 -146c-18.667 -54 -28 -106.667 -28 -158c0 -37.333 3.33301 -66.166 10 -86.499
s19.667 -41.5 39 -63.5c16 -18 31.667 -31.667 47 -41s37.333 -18.666 66 -27.999c36 -12 72 -18 108 -18c16.667 0 34 1.66699 52 5c22 4.66699 46.833 13.167 74.5 25.5s46.834 23.5 57.501 33.5c17.333 16 29.666 49 36.999 99c1.33301 8.66699 0.333008 13.667 -3 15
c-4 1.33301 -51 2 -141 2c-90.667 0 -138 2 -142 6c-3.33301 3.33301 -5 13.333 -5 30c0 2.66699 0.166992 8.66699 0.5 18s0.5 17.666 0.5 24.999c1.33301 46 2.66602 71 3.99902 75c2.66699 4.66699 8.33398 7 17.001 7c3.33301 0 8 -0.166992 14 -0.5
s14.5 -0.833008 25.5 -1.5l32.5 -2c30.667 -2 81.667 -4.33301 153 -7c151.333 -4.66699 228 -8 230 -10l2 -3c2.66699 -4 4 -9.33301 4 -16c0 -4 -1.66699 -27 -5 -69c-3.33301 -38.667 -13.333 -80 -30 -124c-7.33301 -19.333 -23.666 -48.5 -48.999 -87.5
s-45 -64.833 -59 -77.5c-10 -10 -38 -26.333 -84 -49c-36 -18 -67.667 -29.667 -95 -35c-14 -2.66699 -37.333 -4 -70 -4c-29.333 0 -52 1.33301 -68 4c-84.667 12 -149.334 27.333 -194.001 46c-22 8.66699 -44 22.334 -66 41.001s-37.333 36.334 -46 53.001
c-5.33301 10.667 -11.333 21.334 -18 32.001c-13.333 19.333 -23.833 47.833 -31.5 85.5s-11.5 77.5 -11.5 119.5c0 12 1 26 3 42s4.66699 33.5 8 52.5l7 39.5c6 52.667 22 104.667 48 156c12 24 24.833 45.167 38.5 63.5s25.334 32.166 35.001 41.499s26.167 24 49.5 44
c23.333 20.667 39 33 47 37c26 12.667 69.667 23.334 131 32.001z" />
    <glyph glyph-name="H" unicode="H" horiz-adv-x="823" 
d="M696 751c14 2.66699 22 3.33398 24 2.00098c21.333 -4 34.333 -6.83301 39 -8.5s7.66699 -4.83398 9 -9.50098c3.33301 -11.333 5 -53.666 5 -126.999c0 -28.667 -0.333008 -49 -1 -61c-0.666992 -25.333 -3.33398 -66.333 -8.00098 -123
c-8 -114.667 -12 -218.667 -12 -312c0 -49.333 1 -99.333 3 -150c0.666992 -12 1 -28.333 1 -49c0 -21.333 -0.333008 -33 -1 -35c-4.66699 -16.667 -47.667 -25.334 -129 -26.001h-15c-24.667 0 -39.334 3.66699 -44.001 11s-7 28 -7 62c0 38 1.66699 84.333 5 139
c2 40 3 73.333 3 100v10l-1 21h-16c-190 -2 -294.667 -4.66699 -314 -8l-18 -4l-3 -22c-2 -17.333 -3 -48 -3 -92c0 -53.333 1.33301 -96 4 -128c2 -22.667 3 -38 3 -46c0 -9.33301 -2.33301 -16.333 -7 -21c-11.333 -10 -39.666 -15 -84.999 -15
c-21.333 0 -39 3.33301 -53 10c-14.667 6.66699 -22.334 11.334 -23.001 14.001v19c0 15.333 0.666992 73.666 2 174.999c1.33301 69.333 2 153.333 2 252v37c0 78 2 143 6 195c2 21.333 3.66699 52.333 5 93c0.666992 34.667 2.33398 53.667 5.00098 57
c6 6.66699 22 10 48 10c2.66699 0 7.33398 -0.166992 14.001 -0.5s12 -0.5 16 -0.5c34 -1.33301 54 -3.33301 60 -6c8.66699 -4 14 -11 16 -21s3 -37.667 3 -83c0 -76.667 -3 -153 -9 -229c-1.33301 -20 -2 -31.333 -2 -34c0 -10.667 4 -16 12 -16
c0.666992 0 2.33398 0.166992 5.00098 0.5s5 0.5 7 0.5c8 0.666992 52.667 1.66699 134 3c121.333 2 185.333 4 192 6c2.66699 0.666992 4.5 3.83398 5.5 9.50098s2.16699 22.5 3.5 50.5c5.33301 82.667 9.66602 143 12.999 181c2 19.333 3 43.666 3 72.999
c0 48 3.66699 74.667 11 80c4 2.66699 9.66699 4 17 4c2 0 13 1.66699 33 5z" />
    <glyph glyph-name="I" unicode="I" horiz-adv-x="288" 
d="M83 726c4.66699 4.66699 21.667 7 51 7c50.667 0 80 -2.66699 88 -8c9.33301 -4.66699 14.333 -20.667 15 -48v-7c0 -56 -2.66699 -111.667 -8 -167c-2 -18 -4.66699 -66 -8 -144c-4 -76.667 -6 -139.334 -6 -188.001c0 -42.667 0.333008 -79 1 -109
c0.666992 -30.667 1 -67 1 -109c0 -41.333 -0.666992 -64.666 -2 -69.999c-2 -6.66699 -6.33301 -11 -13 -13c-30.667 -12.667 -50.334 -19 -59.001 -19c-2 0 -8.16699 0.166992 -18.5 0.5s-18.166 0.5 -23.499 0.5c-26.667 0.666992 -42.334 7.33398 -47.001 20.001
c-1.33301 4 -2 12.667 -2 26s0.333008 24 1 32c0 6.66699 0.833008 40 2.5 100s3.33398 126.667 5.00098 200s3.66699 147.666 6 222.999s5 139 8 191s5.83301 79.333 8.5 82z" />
    <glyph glyph-name="J" unicode="J" horiz-adv-x="693" 
d="M561 749l42 -0.000976562c20 0 31.667 -1.66699 35 -5c2.66699 -2.66699 4 -11 4 -25c0 -12 -1 -38 -3 -78c-2 -28 -4.33301 -78 -7 -150c-4.66699 -156.667 -14.334 -275.334 -29.001 -356.001c-10.667 -57.333 -19.5 -95.5 -26.5 -114.5s-18.5 -36.5 -34.5 -52.5
c-24.667 -24.667 -52.667 -47 -84 -67c-35.333 -21.333 -73.333 -32 -114 -32c-28.667 0 -60.667 5.66699 -96 17c-8 2.66699 -17 5.5 -27 8.5s-17 5.16699 -21 6.5s-9.5 3.83301 -16.5 7.5s-15.167 8.5 -24.5 14.5c-30.667 20 -51.5 39 -62.5 57s-20.5 48 -28.5 90
c-7.33301 42 -11.333 69.333 -12 82c0 2 -0.166992 5.16699 -0.5 9.5s-0.5 7.83301 -0.5 10.5c0 42.667 3 70 9 82c3.33301 7.33301 13.666 12 30.999 14c6.66699 0.666992 19 3.33398 37 8.00098c14.667 4 24.667 6 30 6c4.66699 0 9 -2 13 -6s6 -21.667 6 -53
c0 -54.667 8.33301 -98.667 25 -132c10.667 -21.333 21 -36 31 -44c6.66699 -6 11.834 -9.5 15.501 -10.5s12.167 -1.83301 25.5 -2.5h9c12.667 0 31.334 1.66699 56.001 5c18.667 2.66699 31 5.16699 37 7.5s15 7.5 27 15.5c27.333 18.667 45.333 38 54 58
c10.667 24 17.334 72 20.001 144c2 48.667 5.5 122.5 10.5 221.5s8.16699 167.167 9.5 204.5c1.33301 32.667 3.66602 50.667 6.99902 54c3.33301 2.66699 21 4.33398 53 5.00098z" />
    <glyph glyph-name="K" unicode="K" horiz-adv-x="785" 
d="M123 767c26.667 2 45.668 3.00488 57.001 3.00488c13.333 0 22.333 -2 27 -6c5.33301 -4 8.66602 -9.33301 9.99902 -16v-15c0 -97.333 -2.66699 -180.666 -8 -249.999c-4 -32 -6 -69.667 -6 -113c0 -20.667 1.33301 -31 4 -31c3.33301 0 19 14.667 47 44
s49 52.666 63 69.999c18.667 21.333 40.667 44.666 66 69.999c76 76 123 126.667 141 152c41.333 58 69.333 89 84 93c6 1.33301 15.333 1 28 -1c4 -0.666992 11.5 -1.66699 22.5 -3s18.167 -2.33301 21.5 -3c26 -4 41.667 -11 47 -21c1.33301 -4 2 -6.66699 2 -8
c0 -6 -5 -15 -15 -27c-7.33301 -8.66699 -22 -29.334 -44 -62.001s-35 -51.667 -39 -57c-58 -72.667 -101 -123.334 -129 -152.001c-18 -18.667 -27 -31.667 -27 -39c0 -4 2 -10 6 -18c6 -12 15.833 -36.5 29.5 -73.5s21.834 -58.5 24.501 -64.5
c4.66699 -11.333 18 -46.666 40 -105.999s37 -96.666 45 -111.999c6.66699 -13.333 16.5 -37 29.5 -71s19.5 -53 19.5 -57c0 -3.33301 -2.66699 -7 -8 -11c-4.66699 -3.33301 -18.334 -5 -41.001 -5h-63l-51 1l-8 8c-4.66699 6 -10.5 16.333 -17.5 31s-11.5 26.667 -13.5 36
c-22.667 99.333 -43.334 178 -62.001 236c-5.33301 18 -12.666 38.5 -21.999 61.5s-14.666 34.5 -15.999 34.5c-2.66699 0 -11 -8.33301 -25 -25c-12.667 -14.667 -29.334 -31.667 -50.001 -51c-18.667 -16.667 -39 -39.334 -61 -68.001l-32 -43l-3 -103
c-2 -68.667 -5.33301 -105.334 -10 -110.001c-10 -10 -38 -15 -84 -15c-25.333 0 -40 2 -44 6s-6 24.333 -6 61c0 38 0.333008 73 1 105c1.33301 95.333 3.83301 191.166 7.5 287.499s6.16699 172.5 7.5 228.5c2.66699 111.333 6 175.666 10 192.999c2 8.66699 17 14 45 16z
" />
    <glyph glyph-name="L" unicode="L" horiz-adv-x="705" 
d="M96 770c20 4 43.668 5.99707 71.001 5.99707c22.667 0 35.667 -1.66699 39 -5s5 -41 5 -113c0 -68 -1.66699 -119.667 -5 -155c-5.33301 -60.667 -8 -122.667 -8 -186c0 -58.667 2 -138 6 -238l2 -50l28 -3c17.333 -2 34.333 -3 51 -3c21.333 0 45.666 1.33301 72.999 4
c56 4 111.667 7.33301 167 10c33.333 1.33301 56.333 2 69 2c5.33301 0 11 -0.166992 17 -0.5s9.33301 -0.5 10 -0.5c14.667 -2 23 -6.16699 25 -12.5s3.66699 -29.166 5 -68.499c0.666992 -13.333 1 -28.333 1 -45c0 -15.333 -1.66699 -24.666 -5 -27.999
c-2 -2 -7.5 -3.83301 -16.5 -5.5s-20.5 -3.16699 -34.5 -4.5s-27 -2.33301 -39 -3s-24.833 -1.5 -38.5 -2.5s-21.834 -1.5 -24.501 -1.5c-22 -2 -60.667 -3 -116 -3c-65.333 0 -129.666 -1 -192.999 -3c-12.667 0 -26.334 -0.166992 -41.001 -0.5
s-26 -0.666016 -34 -0.999023s-14.333 -0.5 -19 -0.5c-14.667 0 -26.667 3.33301 -36 10l-3 87c-0.666992 24 -1 86 -1 186c0 309.333 1.66699 488.333 5 537c3.33301 52 7 80 11 84c0.666992 0.666992 10.334 3 29.001 7z" />
    <glyph glyph-name="M" unicode="M" horiz-adv-x="981" 
d="M863 785c14 1.33301 28.665 1.99805 43.998 1.99805c10.667 0 17.334 -1.33301 20.001 -4c3.33301 -3.33301 5 -22 5 -56c0 -33.333 -2 -86 -6 -158c-2 -27.333 -4.16699 -109.5 -6.5 -246.5s-4.16602 -217.167 -5.49902 -240.5c-2 -40 -3 -85 -3 -135
c0 -32.667 -0.833008 -53.667 -2.5 -63s-5.16699 -14.666 -10.5 -15.999c-2 -0.666992 -24 -1.66699 -66 -3c-11.333 -0.666992 -25 -1 -41 -1s-25.667 3 -29 9s-5.33301 20.667 -6 44v13c0 4 -0.166992 11 -0.5 21s-0.5 17.667 -0.5 23c0 117.333 4.66699 205.333 14 264
c1.33301 10.667 3.16602 42.834 5.49902 96.501s3.5 93.167 3.5 118.5c0 10.667 -0.333008 16.334 -1 17.001s-1.33398 1 -2.00098 1c-2.66699 0 -15 -32 -37 -96c-11.333 -34.667 -26.333 -78 -45 -130c-8.66699 -22.667 -25.5 -61.334 -50.5 -116.001
s-44.167 -94 -57.5 -118c-12.667 -25.333 -19.667 -40.333 -21 -45c-4 -12.667 -10.167 -20.167 -18.5 -22.5s-30.833 -3.5 -67.5 -3.5c-40 0 -63 1 -69 3c-4 1.33301 -6 4 -6 8c0 4.66699 -1.33301 9.66699 -4 15c-16 30 -36.667 85 -62 165c-3.33301 10 -9 26 -17 48
s-12.667 35 -14 39c-6 17.333 -14.667 45.833 -26 85.5s-22 71.834 -32 96.501c-31.333 75.333 -49 113 -53 113c-0.666992 0 -1.33398 -0.333008 -2.00098 -1c-2 -4 -3 -73 -3 -207c0 -132 -1.33301 -211.333 -4 -238c-0.666992 -4 -1.5 -21.667 -2.5 -53
s-2.16699 -61.333 -3.5 -90s-3 -44.334 -5 -47.001c-2.66699 -4.66699 -11.667 -7.66699 -27 -9c-27.333 -2.66699 -50.333 -4 -69 -4c-10 0 -19.667 0.666992 -29 2v906l15 2c19.333 2.66699 33 4.66699 41 6c15.333 2.66699 31.333 4 48 4c17.333 0 33 -1.33301 47 -4
c10 -2 19.667 -3 29 -3c2 0 4.33301 0.166992 7 0.5s4.66699 0.5 6 0.5s3.33301 0.166992 6 0.5s4.33398 0.5 5.00098 0.5c8 0 14.5 -5.33301 19.5 -16s14.833 -39 29.5 -85c8.66699 -27.333 30.334 -89.5 65.001 -186.5s57 -162.833 67 -197.5
c8 -27.333 22.333 -66 43 -116c12 -29.333 19.333 -44 22 -44c3.33301 0 12.333 22 27 66c20 57.333 32.333 91.666 37 102.999c16.667 44 32 82.833 46 116.5s26.333 65.5 37 95.5c14.667 42 29.667 80.333 45 115c13.333 30 20 46.667 20 50c0 2 3.33301 10.333 10 25
c8.66699 20.667 13.334 32.334 14.001 35.001c2 8 5.66699 16 11 24l7 11l38 4c6 0.666992 17.667 1.66699 35 3s29.333 2.33301 36 3z" />
    <glyph glyph-name="N" unicode="N" horiz-adv-x="808" 
d="M661 789c9.33301 2 19.667 2.99316 31 2.99316h15c20 -1.33301 32.5 -2.5 37.5 -3.5s8.16699 -3.83301 9.5 -8.5c2 -5.33301 3 -15.333 3 -30c0 -20 -1.33301 -34.333 -4 -43c-3.33301 -13.333 -5 -53.666 -5 -120.999c0 -48.667 -3 -124 -9 -226
c-5.33301 -90 -8.66602 -185.667 -9.99902 -287v-75c0 -50 1 -80 3 -90c2.66699 -12 4 -22.667 4 -32c0 -10 -2.66699 -17.667 -8 -23s-14 -7.33301 -26 -6c-5.33301 0.666992 -10.166 1.33398 -14.499 2.00098s-7.5 1 -9.5 1c-2.66699 0 -9.66699 -1 -21 -3
c-22 -4.66699 -55.667 -7 -101 -7c-12 0 -21.333 0.666992 -28 2c-8.66699 2 -16 6.5 -22 13.5s-13.667 19.833 -23 38.5l-17 35l-22 45c-48 98 -78 164.333 -90 199c-19.333 52.667 -47.333 115.667 -84 189c-10 20 -19.333 43 -28 69
c-16.667 50.667 -28 80.334 -34 89.001l-2 2c-3.33301 0 -6 -67.667 -8 -203c-0.666992 -30 -1 -68.333 -1 -115c0 -66 2 -157 6 -273c0.666992 -8.66699 1 -19.667 1 -33c0 -9.33301 -0.833008 -16.5 -2.5 -21.5s-3.33398 -9.16699 -5.00098 -12.5
s-6.83398 -5.66602 -15.501 -6.99902s-15.834 -2.16602 -21.501 -2.49902s-17.5 -0.833008 -35.5 -1.5c-4.66699 0 -10.667 -0.166992 -18 -0.5s-12 -0.5 -14 -0.5c-15.333 0 -24.666 2.83301 -27.999 8.5s-5.33301 20.167 -6 43.5v13c-4.66699 189.333 -7 319 -7 389
c0 46.667 0.333008 83 1 109c3.33301 233.333 6.33301 351.333 9 354l3 1h10h13c100.667 0 158.667 -1.66699 174 -5c6 -1.33301 20 -26.666 42 -75.999s41.333 -98.333 58 -147c34.667 -100.667 62.334 -171.334 83.001 -212.001c17.333 -35.333 27.666 -58 30.999 -68
c2.66699 -7.33301 7.5 -17.5 14.5 -30.5s11.5 -22.833 13.5 -29.5c10.667 -31.333 22.334 -56.666 35.001 -75.999c27.333 -52 41.666 -78 42.999 -78s4.66602 102 9.99902 306c2.66699 82.667 4 172.334 4 269.001c0.666992 96.667 2.33398 149 5.00098 157
c2 5.33301 5.66699 8 11 8c2 0 7 -0.666992 15 -2h9c9.33301 0 18 1 26 3z" />
    <glyph glyph-name="O" unicode="O" horiz-adv-x="988" 
d="M586 645c-52.667 12.667 -88.6709 19.0029 -108.004 19.0029c-9.33301 -0.666992 -17.666 -1.33398 -24.999 -2.00098s-14.333 -1.83398 -21 -3.50098s-12 -2.83398 -16 -3.50098s-9.33301 -2.16699 -16 -4.5s-11.167 -4 -13.5 -5l-15.5 -6.5l-17 -7
c-31.333 -12 -58.333 -32 -81 -60c-15.333 -19.333 -26.666 -36.333 -33.999 -51s-13.333 -34.334 -18 -59.001c-11.333 -59.333 -18.666 -95.333 -21.999 -108c-2 -6.66699 -3 -15.667 -3 -27c0 -6.66699 -1.33301 -22.667 -4 -48c-0.666992 -6.66699 -1 -16.667 -1 -30
c0 -37.333 3.66699 -68.666 11 -93.999c5.33301 -18 15.833 -38.333 31.5 -61s31.167 -40 46.5 -52c14 -11.333 43.667 -24.333 89 -39c12 -4 23.333 -6.33301 34 -7s41.667 -1 93 -1h103l33 15c18.667 8 32.667 15.833 42 23.5s20.333 20.5 33 38.5
c18.667 26.667 32 50.834 40 72.501s14.667 53.5 20 95.5c0.666992 2.66699 1.5 7.66699 2.5 15s2 14.166 3 20.499s1.83301 11.833 2.5 16.5c2.66699 16 4 31 4 45c0 16.667 -4.33301 45.667 -13 87c-7.33301 32.667 -20 71.667 -38 117c-12.667 32 -24.667 53 -36 63
s-34.333 20 -69 30l-16 4.5c-6 1.66699 -10.667 3.16699 -14 4.5s-5.66602 2 -6.99902 2zM374.996 785.003l43.001 14.999h50c45.333 0 92 -6.33301 140 -19c16.667 -4.66699 37.167 -12.167 61.5 -22.5s41.5 -18.833 51.5 -25.5c9.33301 -7.33301 21 -14.666 35 -21.999
c15.333 -8.66699 31.666 -21.667 48.999 -39c17.333 -18 28 -33.333 32 -46c3.33301 -10 10.333 -24 21 -42c39.333 -61.333 62.333 -119.666 69 -174.999c6 -55.333 9 -87.333 9 -96c0 -47.333 -4.66699 -92.666 -14 -135.999c-4 -20 -12.167 -45.333 -24.5 -76
s-24.833 -56.334 -37.5 -77.001c-4 -6 -9.33301 -15.667 -16 -29c-4.66699 -10 -18 -27.333 -40 -52c-19.333 -22 -35.666 -36 -48.999 -42c-36 -17.333 -79.333 -31 -130 -41l-43 -9l-94 3c-60.667 1.33301 -100.334 4.33301 -119.001 9c-18.667 4 -31 6 -37 6
c-6.66699 0 -27 5.66699 -61 17s-56.333 19.666 -67 24.999c-21.333 11.333 -44.666 35.166 -69.999 71.499s-43.333 71.833 -54 106.5c-6 18.667 -11.667 43.667 -17 75c-6 30.667 -9 54.334 -9 71.001c0 12.667 0.333008 23.334 1 32.001c0.666992 26 5 76.333 13 151
c3.33301 33.333 7.66602 56 12.999 68c1.33301 3.33301 3.33301 7.66602 6 12.999l19.5 47.5c10.333 25 18.5 42.833 24.5 53.5c4.66699 8.66699 22.5 28.5 53.5 59.5s52.833 50.833 65.5 59.5c41.333 30 83 52 125 66z" />
    <glyph glyph-name="P" unicode="P" horiz-adv-x="807" 
d="M413 661l-86 4.00488c-4.66699 1.33301 -14.667 1 -30 -1c-4.66699 -0.666992 -24.334 -2.66699 -59.001 -6c-24 -2.66699 -36.333 -4.33398 -37 -5.00098s-1 -7.33398 -1 -20.001c0 -62.667 2 -104.667 6 -126c0 -0.666992 1 -25 3 -73s3.66699 -72.667 5 -74
c5.33301 -5.33301 43.333 -8 114 -8h36c46.667 0 79.667 1.66699 99 5s43.333 10.666 72 21.999s48.334 22.666 59.001 33.999s18.667 28.666 24 51.999c4 18.667 6 36 6 52v15c-0.666992 26 -4 45 -10 57c-14.667 30 -40.334 50 -77.001 60
c-19.333 5.33301 -60.666 9.33301 -123.999 12zM200 780.005c0.666992 0 7.16699 0.170898 19.5 0.503906s23.833 0.5 34.5 0.5c168 0 259.333 -1.66699 274 -5c3.33301 -0.666992 8.83301 -1.83398 16.5 -3.50098s12.5 -2.5 14.5 -2.5c60 -12 104.333 -30.333 133 -55
c6 -5.33301 13 -15.666 21 -30.999c4 -8 11 -20 21 -36c8.66699 -12.667 14.167 -25.667 16.5 -39s3.5 -34.666 3.5 -63.999c0 -42 -3.16699 -77.333 -9.5 -106s-18.166 -60.667 -35.499 -96c-16 -32 -35.333 -54.667 -58 -68c-22.667 -12.667 -46 -19 -70 -19
c-8 0 -20 -2 -36 -6c-10.667 -2.66699 -23.5 -4.83398 -38.5 -6.50098s-33.667 -3.33398 -56 -5.00098s-36.833 -2.83398 -43.5 -3.50098c-20 -1.33301 -48 -2 -84 -2h-38h-41c-28 0 -43 -1 -45 -3c-0.666992 -1.33301 -1 -19.333 -1 -54c0 -94.667 1.33301 -168.667 4 -222
c1.33301 -30.667 2 -50.667 2 -60v-9.5c0 -3 -0.166992 -5.5 -0.5 -7.5s-0.5 -3.33301 -0.5 -4c-2.66699 -11.333 -10.667 -17 -24 -17c-2.66699 0 -11.334 0.666992 -26.001 2c-18.667 2 -33.667 3 -45 3c-19.333 0 -32.666 6.66699 -39.999 20c-7.33301 16 -11 71 -11 165
c0 39.333 -1 88 -3 146s-3 102.333 -3 133c0 15.333 0.666992 45.666 2 90.999c1.33301 56.667 4 122 8 196s7 116 9 126c2.66699 14 15.667 22.667 39 26c51.333 9.33301 81.666 14.666 90.999 15.999z" />
    <glyph glyph-name="Q" unicode="Q" horiz-adv-x="952" 
d="M523 640c-20.667 0 -46.9971 3.66895 -78.9971 11.002h-2c-10.667 0 -33.334 -14 -68.001 -42c-26 -21.333 -48 -45.333 -66 -72c-26.667 -38 -50 -93 -70 -165c-4.66699 -17.333 -7.5 -30.5 -8.5 -39.5s-1.5 -30.833 -1.5 -65.5c0 -53.333 2.83301 -92.166 8.5 -116.499
s17.167 -48.166 34.5 -71.499c4 -6 7.83301 -11 11.5 -15s8 -8 13 -12s8.33301 -6.5 10 -7.5l13.5 -8.5l14 -9c13.333 -8.66699 34.333 -16.334 63 -23.001c25.333 -8 58.666 -12 99.999 -12h12c25.333 1.33301 50.333 5.83301 75 13.5s37 14.834 37 21.501
c0 4 -3 11.5 -9 22.5s-11.667 19.833 -17 26.5c-6.66699 7.33301 -10 14 -10 20c0 5.33301 3 10.333 9 15c6.66699 5.33301 17.667 15.666 33 30.999c28.667 30 52 45 70 45c7.33301 0 14.666 -3.66699 21.999 -11c8 -8 13 -11.333 15 -10c5.33301 2 10 18.667 14 50
c0.666992 5.33301 1 19.666 1 42.999c0 91.333 -2.66699 148.333 -8 171c-12.667 51.333 -28.334 88.666 -47.001 111.999c-9.33301 12 -23.666 26.167 -42.999 42.5s-34.333 27.166 -45 32.499c-30.667 15.333 -58 23 -82 23zM573.003 788.002
c5.33301 2 9.66797 2.99805 13.001 2.99805c7.33301 0 21.833 -4.16699 43.5 -12.5s35.834 -13.166 42.501 -14.499c28 -5.33301 48.667 -12.666 62 -21.999s33 -30.333 59 -63c30.667 -38 53.667 -75.667 69 -113c26 -60.667 39 -136.334 39 -227.001
c0 -30 -2 -58.333 -6 -85c-6 -40.667 -10.333 -67 -13 -79s-10.334 -38.667 -23.001 -80c-6 -19.333 -14.333 -39.666 -25 -60.999l-19 -38l6 -9c0.666992 -1.33301 3.5 -6 8.5 -14l13.5 -21.5c4 -6.33301 7.83301 -13.5 11.5 -21.5s5.5 -14 5.5 -18
c0 -21.333 -27.333 -45.666 -82 -72.999c-14.667 -8 -26.334 -12 -35.001 -12c-7.33301 0 -13.666 3 -18.999 9s-12 16.333 -20 31c-8.66699 16 -13.667 24 -15 24l-22 -8c-7.33301 -2.66699 -38.666 -9.66699 -93.999 -21c-32 -7.33301 -72 -11 -120 -11
c-20 0 -47.333 3.66699 -82 11c-9.33301 2 -25 5.16699 -47 9.5s-35.667 7.16602 -41 8.49902c-37.333 7.33301 -63 14.5 -77 21.5s-30.667 20.5 -50 40.5c-18 19.333 -31.667 38.666 -41 57.999c-23.333 48.667 -40 99.334 -50 152.001c-6.66699 31.333 -10 64 -10 98
c0 70.667 18.667 155.667 56 255c18.667 50 44 97.333 76 142c19.333 27.333 36 47 50 59s33 22.667 57 32c6 2 14.667 5.5 26 10.5s21.666 9.16699 30.999 12.5s18.666 6 27.999 8c38.667 6.66699 65.334 10 80.001 10c12 0 24.167 1.33301 36.5 4s23.166 4 32.499 4h10
c2 0 5 -0.166992 9 -0.5s7 -0.5 9 -0.5c7.33301 0 13 0.666992 17 2z" />
    <glyph glyph-name="R" unicode="R" horiz-adv-x="861" 
d="M473 655c-21.333 2 -38.6621 3.00195 -51.9951 3.00195c-16.667 0 -28.334 -1 -35.001 -3c-10 -2 -19.333 -3 -28 -3c-10.667 0 -25.334 -2 -44.001 -6c-34 -8 -63 -12 -87 -12c-14.667 0 -23.334 -1.83301 -26.001 -5.5s-4 -15.834 -4 -36.501
c0 -8.66699 1.66699 -39.667 5 -93c1.33301 -12 2.66602 -31.5 3.99902 -58.5s2.33301 -43.167 3 -48.5c2.66699 -32.667 4.66699 -49.667 6 -51c3.33301 -2 20.333 -4 51 -6c20 -1.33301 39 -2 57 -2c73.333 0 123.333 2.66699 150 8c8 2 16 3 24 3
c4.66699 0 19 2.66699 43 8c27.333 6.66699 49 16.167 65 28.5s30.333 29.833 43 52.5c13.333 24.667 20 46.667 20 66c0 11.333 -2 24.666 -6 39.999c-6.66699 28.667 -16 50 -28 64c-3.33301 4 -11.833 10.333 -25.5 19s-25.167 15 -34.5 19
c-12.667 6 -46.334 10.667 -101.001 14zM412.004 780.002c14 2.66699 23.6689 4.00098 29.002 4.00098c1.33301 0 6.66602 -0.666992 15.999 -2c5.33301 -1.33301 27.333 -3.33301 66 -6c36 -2 60.667 -5 74 -9c44 -11.333 78.333 -23 103 -35
c18.667 -8.66699 31.334 -15.334 38.001 -20.001s15.334 -12.667 26.001 -24c16 -17.333 26 -31 30 -41c9.33301 -20.667 14 -55.334 14 -104.001c0 -23.333 -3.33301 -47 -10 -71c-19.333 -68.667 -35 -115 -47 -139c-7.33301 -13.333 -19.333 -28.5 -36 -45.5
s-31.334 -28.5 -44.001 -34.5s-22.667 -12.333 -30 -19c-6 -5.33301 -18.333 -12.833 -37 -22.5s-32.334 -15.5 -41.001 -17.5c-6 -1.33301 -9 -3.33301 -9 -6c0 -3.33301 4.66699 -16.666 14 -39.999c9.33301 -22.667 23.333 -60.834 42 -114.501l30 -86.5
c21.333 -60 32 -93.333 32 -100c0 -4.66699 -13.333 -7.66699 -40 -9c-0.666992 0 -9 -0.5 -25 -1.5s-28 -1.83301 -36 -2.5c-17.333 -1.33301 -28.333 -2 -33 -2c-6 0 -11.167 0.5 -15.5 1.5s-7.66602 2 -9.99902 3s-4.5 3.66699 -6.5 8s-3.5 7.5 -4.5 9.5
s-2.33301 7 -4 15s-3.16699 14 -4.5 18c-11.333 47.333 -22.333 89.333 -33 126c-23.333 76.667 -37.333 123.334 -42 140.001c-4 17.333 -7.33301 28.333 -10 33c-1.33301 2 -19 3 -53 3c-34.667 0 -61.667 2 -81 6c-20.667 4.66699 -39 7.66699 -55 9l-24 2l-2 -12v-7
c0 -20.667 3.66699 -57.667 11 -111c3.33301 -24.667 6.66602 -83.667 9.99902 -177c0 -4 0.166992 -9.33301 0.5 -16s0.5 -11.334 0.5 -14.001c0 -24.667 -4.5 -39.334 -13.5 -44.001s-32.5 -7 -70.5 -7c-32 0 -53.333 1.33301 -64 4s-16 9 -16 19c0 5.33301 1 12 3 20
c2.66699 8.66699 4 20.334 4 35.001c0 13.333 -1 41.333 -3 84c-2.66699 66 -4 174 -4 324c0 282.667 3 433.334 9 452.001c1.33301 3.33301 14.666 5 39.999 5c54.667 0 105.667 5 153 15c12 1.33301 28 2 48 2h29c6 0 13.333 -0.166992 22 -0.5s14.667 -0.5 18 -0.5
c17.333 0 31.333 1 42 3z" />
    <glyph glyph-name="S" unicode="S" horiz-adv-x="849" 
d="M390 776c20 3.33301 38.3359 4.99805 55.0029 4.99805c21.333 0 42 -0.333008 62 -1l82 -2l43 -13c25.333 -7.33301 44.666 -14.333 57.999 -21s28.166 -20 44.499 -40s29.833 -41 40.5 -63c13.333 -28 20 -63 20 -105c0 -2 -0.166992 -4.33301 -0.5 -7
s-0.5 -4.66699 -0.5 -6c-2 -16 -5.33301 -26.667 -10 -32c-5.33301 -6 -13.666 -10.333 -24.999 -13s-31.666 -5 -60.999 -7c-8 -0.666992 -17.667 -1 -29 -1c-19.333 0 -31.666 5 -36.999 15c-3.33301 5.33301 -5 13 -5 23c0 22.667 -7.66699 46.667 -23 72
c-15.333 24.667 -36.333 44 -63 58c-16.667 8 -34.334 12 -53.001 12c-22.667 0 -44.334 -2.66699 -65.001 -8c-18 -4 -29.333 -7.16699 -34 -9.5s-10.667 -7.5 -18 -15.5c-10.667 -10.667 -16.667 -20.667 -18 -30c-0.666992 -3.33301 -1 -8.33301 -1 -15
c0 -22 6.66699 -39 20 -51c28.667 -26.667 48.667 -42 60 -46c9.33301 -4 33.5 -17.333 72.5 -40s68.167 -41 87.5 -55c46.667 -32.667 78.334 -57.667 95.001 -75c13.333 -13.333 23.5 -25.666 30.5 -36.999s15.167 -29 24.5 -53c10 -26 15 -54.667 15 -86
c0 -16.667 -1 -37 -3 -61c-2.66699 -37.333 -15.667 -80.333 -39 -129c-16.667 -34 -37 -58.667 -61 -74c-36 -22 -70.667 -36.333 -104 -43s-89 -10 -167 -10c-46 0 -74.667 0.5 -86 1.5s-29 4.5 -53 10.5c-7.33301 1.33301 -13.833 3.33301 -19.5 6
s-12 5.83398 -19 9.50098s-13.167 6.5 -18.5 8.5c-24.667 8.66699 -46.334 24 -65.001 46c-41.333 48.667 -63.333 115 -66 199v16c0 14.667 2.5 24.334 7.5 29.001s16.167 9.33398 33.5 14.001c21.333 6 36.333 11 45 15c11.333 4.66699 19.666 7 24.999 7
s10.666 -2.66699 15.999 -8c4.66699 -4.66699 8 -13.334 10 -26.001c6.66699 -58 21 -104 43 -138c4 -4 16 -11.333 36 -22l31 -17l36 -1h11c61.333 0 110.333 11.667 147 35c7.33301 4.66699 16 8.66699 26 12c7.33301 2 16.333 8.5 27 19.5s17.667 21.167 21 30.5
c2.66699 6 4 13.667 4 23c0 7.33301 -0.333008 13.666 -1 18.999c-2 29.333 -11 59.666 -27 90.999c-8 16.667 -20.333 33 -37 49c-30 29.333 -53.333 48 -70 56l-41 18c-21.333 9.33301 -32.666 14 -33.999 14c-2.66699 0 -16.834 7.33301 -42.501 22s-42.5 25 -50.5 31
c-7.33301 6 -20.333 14 -39 24c-26 13.333 -44.833 30.333 -56.5 51s-17.5 48.334 -17.5 83.001c0 18.667 0.666992 33.334 2 44.001c2 20.667 9.33301 44 22 70c22 46.667 54.667 78 98 94c30.667 11.333 67 20.666 109 27.999z" />
    <glyph glyph-name="T" unicode="T" horiz-adv-x="906" 
d="M507 754c14.667 1.33301 47.001 1.99805 97.001 1.99805c88 0 150 -1.33301 186 -4c16.667 -1.33301 28.167 -3.33301 34.5 -6s12.5 -8 18.5 -16c4 -5.33301 6.33301 -20.666 7 -45.999l2 -38l-18 -18h-55c-24 0 -59.167 -2.16699 -105.5 -6.5s-74.5 -6.83301 -84.5 -7.5
l-34 -2l-1 -10c-1.33301 -7.33301 -2.66602 -45 -3.99902 -113c-2 -96.667 -3 -183.334 -3 -260.001c0 -73.333 0.666992 -131.666 2 -174.999c2 -68.667 3 -117 3 -145c0 -19.333 -0.833008 -33.333 -2.5 -42s-3.5 -14 -5.5 -16s-6 -4 -12 -6
c-5.33301 -1.33301 -14 -2 -26 -2c-23.333 0 -50 1.66699 -80 5c-14.667 2 -23.667 5.66699 -27 11s-5.33301 20.333 -6 45c-3.33301 101.333 -5 292.333 -5 573c0 14.667 0.166992 31 0.5 49s0.5 27.667 0.5 29v27c0 22.667 -0.333008 34.334 -1 35.001
c-2 2 -52.333 3 -151 3c-100 0 -154 1.33301 -162 4c-8.66699 2.66699 -14.5 6.33398 -17.5 11.001s-4.5 13.667 -4.5 27c0 2 0.166992 5.5 0.5 10.5s0.5 9.16699 0.5 12.5c1.33301 28 2.66602 44.333 3.99902 49c1.33301 3.33301 5 6.66602 11 9.99902c6 4 27 6 63 6
c29.333 0 85.666 -1 168.999 -3c24 -0.666992 52.333 -1 85 -1c36 0 76.333 2.66699 121 8z" />
    <glyph glyph-name="U" unicode="U" horiz-adv-x="783" 
d="M90 752c8.66699 0 21.8311 0.833008 39.498 2.5s29.5 2.5 35.5 2.5h3c10 0 16.667 -6.33301 20 -19c2.66699 -10.667 4 -31.334 4 -62.001c0 -21.333 -1.33301 -54 -4 -98c-2 -27.333 -3.66699 -65 -5 -113c-0.666992 -10 -1 -22.667 -1 -38c0 -17.333 2.33301 -42 7 -74
l5.5 -46.5c2.33301 -19.667 3.83301 -30.834 4.5 -33.501c8 -78.667 21 -136 39 -172c14 -28 30.833 -49.167 50.5 -63.5s48.5 -25.833 86.5 -34.5c30 -7.33301 51 -11 63 -11c6.66699 0 14 1 22 3c24.667 6 41.834 11.833 51.501 17.5s18.167 15.167 25.5 28.5
c2 2.66699 4.83301 7.33398 8.5 14.001s6.5 11.334 8.5 14.001c32.667 46.667 49 152 49 316c0 45.333 -4.66699 105 -14 179c-2 14 -3 50.667 -3 110c0 35.333 0.666992 57 2 65c2 9.33301 7.66699 14 17 14c4.66699 0 10.667 -1 18 -3c10 -2 19.333 -3 28 -3h10
c24.667 2.66699 42 4 52 4c6.66699 0 11.667 -1.66699 15 -5s5 -10.666 5 -21.999c0 -3.33301 -1.66699 -45 -5 -125c-6 -143.333 -9 -262.666 -9 -357.999v-54c0 -40.667 -2.33301 -73.334 -7 -98.001c-10 -54 -20.333 -92 -31 -114
c-5.33301 -10.667 -13.333 -20.334 -24 -29.001c-2 -2 -9.16699 -8.33301 -21.5 -19l-28.5 -25c-22 -19.333 -37.667 -29.666 -47 -30.999c-10 -1.33301 -18.667 -4 -26 -8c-8.66699 -4.66699 -31.667 -7.33398 -69 -8.00098h-22c-15.333 0 -27.5 0.5 -36.5 1.5
s-19.833 2.5 -32.5 4.5s-24.667 3.66699 -36 5c-34 3.33301 -58.167 7 -72.5 11s-34.166 12.333 -59.499 25c-22.667 10.667 -51.334 40.667 -86.001 90c-33.333 48 -53 101 -59 159c-6 63.333 -9 176.333 -9 339c0 162 3 248 9 258c2.66699 2.66699 12.334 4 29.001 4z" />
    <glyph glyph-name="V" unicode="V" horiz-adv-x="942" 
d="M57 747c2 2 29 2.99902 81 2.99902c52.667 0 80.334 -1.33301 83.001 -4c5.33301 -5.33301 15 -34.666 29 -87.999c10.667 -34 17.667 -64.667 21 -92c2.66699 -22 12.667 -56.667 30 -104s33 -83 47 -107c2.66699 -4.66699 6.5 -13.667 11.5 -27l16 -43.5
c5.66699 -15.667 9.16699 -25.167 10.5 -28.5c23.333 -63.333 39.666 -102.666 48.999 -117.999c2.66699 -4.66699 9.66699 -18.334 21 -41.001c4.66699 -10.667 8 -16 10 -16s8.33301 13.333 19 40l48 117c21.333 52 48.166 124 80.499 216s60.166 165 83.499 219
c12.667 30.667 19 47 19 49c0 4.66699 3 10 9 16l10 10l44 -1h20c18 0 32.333 0.666992 43 2c8 1.33301 12.667 2 14 2c3.33301 0 9.33301 -1.66699 18 -5l14 -6v-22c0 -22.667 -17 -72.334 -51 -149.001c-9.33301 -20.667 -18.333 -42 -27 -64
c-39.333 -97.333 -60.666 -148.666 -63.999 -153.999c-20 -39.333 -58 -119 -114 -239c-4 -12 -11.5 -29.167 -22.5 -51.5s-17.833 -36.5 -20.5 -42.5c-3.33301 -8.66699 -10.333 -24.834 -21 -48.501s-18.334 -41.167 -23.001 -52.5
c-5.33301 -17.333 -10.5 -28.833 -15.5 -34.5s-13.167 -9.16699 -24.5 -10.5c-24.667 -3.33301 -44.667 -5 -60 -5c-12 0 -24 1.33301 -36 4c-13.333 4 -23 8.66699 -29 14s-11.667 14.333 -17 27l-20 45.5l-29.5 69c-9 21.667 -14.833 37.834 -17.5 48.501
c-5.33301 19.333 -11.333 36.333 -18 51c-63.333 174.667 -101.666 278.667 -114.999 312s-32.666 87.333 -57.999 162c-6.66699 20.667 -16 45.334 -28 74.001c-10 24.667 -15.333 38.667 -16 42c-1.33301 8 -2.66602 12.333 -3.99902 13
c-2 1.33301 -2.83301 4.16602 -2.5 8.49902s1.16602 7.5 2.49902 9.5z" />
    <glyph glyph-name="W" unicode="W" horiz-adv-x="998" 
d="M53 649l0.00683594 116.001l75 1c50.667 0 76.667 -0.333008 78 -1c6.66699 -4.66699 10 -16 10 -34c0 -34 4.66699 -80.333 14 -139c2 -12 4.5 -28.5 7.5 -49.5s5.83301 -39.5 8.5 -55.5c7.33301 -41.333 12.333 -79.666 15 -114.999
c1.33301 -19.333 3.16602 -36.333 5.49902 -51s5.5 -32 9.5 -52l10 -51c13.333 -73.333 22.333 -112.333 27 -117c0.666992 -0.666992 1.66699 0.666016 3 3.99902c0.666992 1.33301 2.66699 6.66602 6 15.999c32.667 96 55.667 169.333 69 220
c7.33301 26.667 16.166 55 26.499 85s17.166 46.667 20.499 50s12.666 5.33301 27.999 6c9.33301 0 24 1.5 44 4.5s35 4.5 45 4.5s17.333 -0.666992 22 -2c9.33301 -2 15.833 -6 19.5 -12s6.5 -16.667 8.5 -32c18.667 -132.667 31 -223.667 37 -273c4 -40.667 7 -61 9 -61
c4 0 6 6 6 18c0 7.33301 1 15.333 3 24c0.666992 3.33301 2.66699 19 6 47c4 37.333 14.5 91.666 31.5 162.999s26.833 114.333 29.5 129c8.66699 43.333 14 69 16 77c20.667 90.667 33 141 37 151c8.66699 24.667 18 37 28 37c4.66699 0 12 -1.66699 22 -5
c4 -1.33301 10.667 -2 20 -2c5.33301 0 16.666 0.666992 33.999 2c8 0.666992 17.667 1 29 1c15.333 0 24.666 -3.66699 27.999 -11c0.666992 -0.666992 1 -2 1 -4c0 -3.33301 -2.16699 -9.33301 -6.5 -18s-6.5 -14 -6.5 -16c0 -4 -3 -15 -9 -33
c-14.667 -44 -25 -87.667 -31 -131c-1.33301 -13.333 -8 -45.333 -20 -96c-9.33301 -38.667 -21 -94.667 -35 -168s-31 -149.333 -51 -228c-12 -51.333 -23.667 -97.666 -35 -138.999c-4 -13.333 -6 -22 -6 -26s-1.33301 -8 -4 -12c-2.66699 -3.33301 -32 -5 -88 -5
c-56.667 0 -87 1.66699 -91 5c-6 4 -12.833 20 -20.5 48s-12.834 54.667 -15.501 80c-1.33301 12.667 -9.33301 66.667 -24 162c-2.66699 16.667 -5.33398 25 -8.00098 25c-2 0 -4 -4 -6 -12c-1.33301 -5.33301 -4.5 -16 -9.5 -32s-9.5 -33 -13.5 -51
c-18 -78 -37.333 -149.333 -58 -214c-3.33301 -9.33301 -8.66602 -16.333 -15.999 -21c-6.66699 -4 -33.667 -6 -81 -6c-46.667 0 -72.334 1.33301 -77.001 4s-12.667 20.334 -24 53.001c-15.333 45.333 -25.666 78.666 -30.999 99.999s-11.666 52.666 -18.999 93.999
c-3.33301 21.333 -6.33301 42.333 -9 63s-5 34.334 -7 41.001l-11 70c-6.66699 42.667 -26.334 142 -59.001 298z" />
    <glyph glyph-name="X" unicode="X" horiz-adv-x="889" 
d="M110 746c8 0 20.333 1.16992 37 3.50293s29 3.5 37 3.5c17.333 0 30.333 -4 39 -12c6 -5.33301 13.833 -14.666 23.5 -27.999s15.834 -23.333 18.501 -30s9.33398 -19 20.001 -37s19.667 -31.667 27 -41c6.66699 -8.66699 20.5 -31.167 41.5 -67.5
s35.167 -62.166 42.5 -77.499c5.33301 -10.667 14.666 -26.5 27.999 -47.5s22.333 -34.167 27 -39.5c2.66699 -2.66699 4.5 -3.66699 5.5 -3s3.16699 3.66699 6.5 9c4 6.66699 16 29.167 36 67.5s34.667 64.5 44 78.5c11.333 16 26.833 42.833 46.5 80.5
s32.167 60.834 37.5 69.501c6.66699 11.333 14.834 23.833 24.501 37.5s16.167 21.167 19.5 22.5c2 1.33301 18.833 2.83301 50.5 4.5s48.5 2.83398 50.5 3.50098c4 2 13 3 27 3c12.667 0 21.667 -2.66699 27 -8s8 -9 8 -11c0 -10 -11 -30.333 -33 -61
c-29.333 -42.667 -49.333 -75.334 -60 -98.001c-5.33301 -10.667 -15.5 -26.834 -30.5 -48.501s-24.167 -35.167 -27.5 -40.5s-12.666 -18.833 -27.999 -40.5s-25 -37.167 -29 -46.5c-14 -31.333 -33.667 -67 -59 -107c-19.333 -30 -29 -47 -29 -51
c0 -2.66699 7.5 -15.5 22.5 -38.5s26.167 -38.5 33.5 -46.5c3.33301 -3.33301 10.666 -15 21.999 -35c16.667 -32 34.334 -58.667 53.001 -80c18.667 -22 48 -66.333 88 -133c10.667 -18 16 -28.333 16 -31c0 -4 -3 -8.33301 -9 -13c-5.33301 -4 -27 -6 -65 -6
s-60.333 0.666992 -67 2s-15 10.666 -25 27.999c-44.667 72 -72 114.333 -82 127c-24 30 -43 56.667 -57 80c-6 9.33301 -9.66699 14 -11 14c-2.66699 0 -11.834 -11.667 -27.501 -35s-27.834 -43 -36.501 -59c-13.333 -25.333 -31.5 -56.333 -54.5 -93
s-36.5 -56.334 -40.5 -59.001c-4.66699 -2.66699 -18 -4 -40 -4c-60 0 -95.333 5.33301 -106 16c-4.66699 4.66699 -7 9 -7 13c0 7.33301 15.667 34.666 47 81.999c28 43.333 43.667 68.666 47 75.999c6 12 17.5 32.333 34.5 61s26.833 44 29.5 46
c3.33301 3.33301 12.666 15.5 27.999 36.5s24 33.833 26 38.5c2 3.33301 3 6.33301 3 9c0 6.66699 -18.333 36 -55 88c-42 58.667 -77.333 115.667 -106 171c-4 9.33301 -15 28.333 -33 57c-16.667 27.333 -30.667 52.666 -42 75.999c-24.667 54.667 -45 89 -61 103
c-5.33301 4 -8 7.66699 -8 11c0 6 18.333 9.33301 55 10z" />
    <glyph glyph-name="Y" unicode="Y" horiz-adv-x="805" 
d="M634 769c12.667 1.33301 26.8301 3.33398 42.4971 6.00098s29.834 4 42.501 4c11.333 0 19 -2.66699 23 -8c4 -4.66699 6 -9.66699 6 -15s-5.66699 -16.666 -17 -33.999c-71.333 -107.333 -114.333 -177.333 -129 -210c-21.333 -48.667 -44.333 -93.667 -69 -135l-48 -92
c-4.66699 -8.66699 -7.66699 -28.334 -9 -59.001c-0.666992 -6.66699 -1.16699 -14.667 -1.5 -24s-0.833008 -16.666 -1.5 -21.999s-1 -9 -1 -11c-4 -24 -6 -56.667 -6 -98c0 -16 0.333008 -27.333 1 -34c2.66699 -32 4 -64 4 -96v-19c0 -20.667 -1.66699 -35 -5 -43
c-3.33301 -7.33301 -12.333 -12 -27 -14c-1.33301 0 -4.66602 -0.333008 -9.99902 -1s-11 -1.5 -17 -2.5s-11.667 -1.83301 -17 -2.5c-21.333 -2.66699 -34 -4 -38 -4c-14 0 -24.333 3.33301 -31 10c-5.33301 5.33301 -8.66602 18 -9.99902 38v33
c0 70.667 0.333008 129 1 175l1 176l-12 23c-16.667 30.667 -36.334 59 -59.001 85c-32 36 -62.333 82 -91 138c-2.66699 5.33301 -14.334 24.666 -35.001 57.999s-37 61.833 -49 85.5s-18 41.167 -18 52.5s6.66699 17 20 17c28.667 0 64 4 106 12
c12.667 2.66699 23.667 4 33 4s15.833 -2.5 19.5 -7.5s7.16699 -15.167 10.5 -30.5c2 -8 5.5 -17 10.5 -27s11 -21.167 18 -33.5s11.833 -21.166 14.5 -26.499c7.33301 -15.333 16.666 -31.333 27.999 -48s20.333 -31 27 -43c16.667 -28.667 27.334 -46.334 32.001 -53.001
c4 -6 9.16699 -12.667 15.5 -20l16.5 -18.5c4.66699 -5 7.33398 -7.5 8.00098 -7.5c2 0 10 13.667 24 41l21.5 39c9.66699 17.333 15.5 28.333 17.5 33c32 59.333 52.667 100.666 62 123.999c18.667 46.667 33.334 72.667 44.001 78c4 2 21.333 4.33301 52 7z" />
    <glyph glyph-name="Z" unicode="Z" horiz-adv-x="753" 
d="M425 756c3.33301 0.666992 7.00098 0.999023 11.001 0.999023c1.33301 0 5 -0.166992 11 -0.5s10.667 -0.5 14 -0.5c10 -0.666992 51.333 -1.66699 124 -3c57.333 -0.666992 90.333 -2.66699 99 -6c11.333 -4.66699 17 -19 17 -43
c0 -12.667 -0.333008 -23.334 -1 -32.001c0 -4.66699 -0.166992 -11.5 -0.5 -20.5s-0.5 -15.5 -0.5 -19.5c0 -4.66699 0.166992 -9.66699 0.5 -15s0.5 -8.33301 0.5 -9c0.666992 -2.66699 1 -6.33398 1 -11.001c0 -12.667 -3.33301 -23 -10 -31
c-3.33301 -4.66699 -16.5 -24.667 -39.5 -60s-37.5 -56.666 -43.5 -63.999l-20.5 -27c-9.66699 -12.667 -15.5 -20 -17.5 -22c-55.333 -74 -100.666 -130.333 -135.999 -169c-20 -23.333 -32.667 -39.666 -38 -48.999c-10.667 -18 -18 -28.333 -22 -31
c-2.66699 -2 -14 -14.5 -34 -37.5s-31 -35.5 -33 -37.5c-6.66699 -4.66699 -17.834 -17.834 -33.501 -39.501s-23.5 -34.167 -23.5 -37.5c0 -0.666992 2 -1 6 -1c10.667 0 32.667 1.66699 66 5s52.666 5.33301 57.999 6c14 2 49 3 105 3h35
c11.333 0 24.666 -0.166992 39.999 -0.5s25.333 -0.5 30 -0.5c28 0 47 1.66699 57 5s17 5 21 5c4.66699 0 9 -2 13 -6c3.33301 -4 5 -28.667 5 -74c-0.666992 -45.333 -2 -69 -4 -71c-2.66699 -1.33301 -31.334 -2.66602 -86.001 -3.99902
c-175.333 -4.66699 -277.666 -8.33398 -306.999 -11.001c-11.333 -1.33301 -52 -2.66602 -122 -3.99902c-21.333 -0.666992 -43.333 -1 -66 -1c-17.333 0 -27.666 2 -30.999 6c-3.33301 3.33301 -5 13.333 -5 30v38c0.666992 36.667 2.5 60 5.5 70s13.167 24.333 30.5 43
c62 68.667 93.667 103.667 95 105c13.333 13.333 27.666 30 42.999 50l59 75c28.667 34.667 54 69.667 76 105c6 9.33301 19 27.333 39 54c24 30.667 46.167 62 66.5 94s30.5 51.667 30.5 59c0 3.33301 -5.33301 4.33301 -16 3c-18 -2 -68.333 -3 -151 -3
c-90 -1.33301 -135.667 -2.33301 -137 -3h-8c-14.667 0 -38.167 1 -70.5 3s-50.5 3.66699 -54.5 5c-4.66699 1.33301 -7.66699 3 -9 5s-3.33301 7 -6 15c-3.33301 11.333 -5 29 -5 53c0 20 1.33301 37.333 4 52c2 6.66699 3 14.334 3 23.001c0 8 2 12.333 6 13
c2.66699 0.666992 28.667 1.66699 78 3c180.667 3.33301 274.334 8.33301 281.001 15z" />
    <glyph glyph-name="nbsp" unicode="&#xa0;" 
 />
    <glyph glyph-name="quotedblleft" unicode="&#x201c;" horiz-adv-x="480" 
d="M377 730c10.667 4.66699 18.334 6.99707 23.001 6.99707c6 0 11.667 -2.66699 17 -8c4.66699 -4.66699 7 -9.66699 7 -15c0 -7.33301 -5.33301 -17.666 -16 -30.999c-16.667 -20.667 -25 -41.334 -25 -62.001c0 -18.667 7.66699 -39 23 -61c14 -20.667 21 -38 21 -52
c0 -2.66699 -0.666992 -6.66699 -2 -12c-2.66699 -10.667 -7.66699 -21.167 -15 -31.5s-15 -17.166 -23 -20.499c-10.667 -4.66699 -20.334 -7 -29.001 -7c-24.667 0 -46 9.66699 -64 29c-10 10.667 -16.833 20.334 -20.5 29.001s-6.16699 20.334 -7.5 35.001
c-0.666992 4.66699 -1 11.334 -1 20.001c0 32 6 59.667 18 83c8.66699 17.333 24 36.333 46 57c22 21.333 38 34.666 48 39.999zM189 733.997c22.667 16 37.001 24 43.001 24c4.66699 0 10.334 -2.66699 17.001 -8c6 -5.33301 9 -10.666 9 -15.999
c0 -4.66699 -0.333008 -8.66699 -1 -12c-1.33301 -17.333 -8 -33.666 -20 -48.999c-19.333 -22.667 -29 -52.334 -29 -89.001c0 -12 1.33301 -22.333 4 -31c3.33301 -11.333 5.66602 -26.333 6.99902 -45v-16c0 -10 -2.33301 -19.333 -7 -28
c-15.333 -30 -37.333 -46.667 -66 -50h-10c-34 0 -59 15.333 -75 46c-6 12 -9 29 -9 51c0 26.667 2.83301 48.167 8.5 64.5s18.167 39.166 37.5 68.499c23.333 34.667 53.666 64.667 90.999 90z" />
    <glyph glyph-name="quotedblright" unicode="&#x201d;" horiz-adv-x="494" 
d="M129 776c4 2 11 3.00195 21 3.00195c9.33301 0 20 -4 32 -12c22.667 -15.333 41 -36 55 -62s21 -55.333 21 -88c0 -6 -0.666992 -15 -2 -27c-3.33301 -30.667 -13.666 -59 -30.999 -85c-16.667 -24.667 -33 -37 -49 -37c-6 0 -11 2 -15 6c-4 4.66699 -5 14 -3 28
c0.666992 4.66699 1 11.667 1 21c0 33.333 -14 61.666 -42 84.999c-18 14 -35 36.333 -51 67c-8 15.333 -12 25.666 -12 30.999c0 0.666992 0.166992 2 0.5 4s0.5 3.66699 0.5 5c2 17.333 8.66699 32.333 20 45c9.33301 10.667 20.666 16 33.999 16
c0.666992 0 1.66699 -0.166992 3 -0.5s2.33301 -0.5 3 -0.5c5.33301 -1.33301 10 -1 14 1zM296 786.002c5.33301 3.33301 12.666 5.00098 21.999 5.00098c10 0 23.5 -1.5 40.5 -4.5s27.5 -5.83301 31.5 -8.5c4.66699 -2.66699 12.5 -11.667 23.5 -27
s18.167 -26.666 21.5 -33.999c3.33301 -8 5 -19 5 -33c0 -24 -3.66699 -51.5 -11 -82.5s-16 -55.167 -26 -72.5c-10.667 -19.333 -23.5 -34.833 -38.5 -46.5s-28.833 -17.5 -41.5 -17.5c-8 0 -14.667 2.66699 -20 8c-4.66699 4.66699 -7 9.66699 -7 15c0 6 2.33301 17 7 33
s7 28.667 7 38c0 8 -0.333008 14.667 -1 20c-1.33301 20.667 -3.66602 36 -6.99902 46s-13.333 28 -30 54c-6 9.33301 -9.33301 21.666 -10 36.999v9c0 29.333 11.333 49.666 34 60.999z" />
    <glyph glyph-name="nonmarkingreturn" horiz-adv-x="333" 
 />
  </font>
</defs>
</svg>
