<svg xmlns="http://www.w3.org/2000/svg" xmlns:xlink="http://www.w3.org/1999/xlink" width="35" height="34">
  <defs>
    <path id="a" d="M0 .054h33.946v33.942H0z"/>
  </defs>
  <g fill="none" fill-rule="evenodd">
    <g transform="translate(.5)">
      <mask id="b" fill="#fff">
        <use xlink:href="#a"/>
      </mask>
      <path fill="#F9F9F7" d="M16.973.054c-4.61 0-5.187.019-6.998.102-1.806.082-3.04.37-4.12.789A8.32 8.32 0 0 0 2.85 2.902 8.319 8.319 0 0 0 .89 5.91c-.42 1.08-.706 2.313-.789 4.12C.02 11.839 0 12.417 0 17.027s.02 5.187.102 6.998c.083 1.806.37 3.04.79 4.12a8.319 8.319 0 0 0 1.957 3.006 8.32 8.32 0 0 0 3.006 1.958c1.08.42 2.314.706 4.12.789 1.81.082 2.389.102 6.998.102 4.61 0 5.188-.02 6.998-.102 1.807-.083 3.04-.37 4.12-.79a8.319 8.319 0 0 0 3.007-1.957 8.32 8.32 0 0 0 1.957-3.006c.42-1.08.707-2.314.79-4.12.082-1.81.101-2.389.101-6.998 0-4.61-.02-5.188-.102-6.998-.082-1.807-.369-3.04-.789-4.12a8.32 8.32 0 0 0-1.957-3.007A8.319 8.319 0 0 0 28.09.945c-1.08-.42-2.313-.707-4.12-.79-1.81-.082-2.388-.101-6.998-.101m0 3.058c4.532 0 5.069.017 6.859.099 1.655.075 2.553.352 3.152.584a5.258 5.258 0 0 1 1.951 1.27c.594.594.962 1.16 1.27 1.951.232.599.509 1.497.584 3.152.082 1.79.1 2.327.1 6.859s-.018 5.069-.1 6.858c-.075 1.655-.352 2.554-.584 3.152a5.257 5.257 0 0 1-1.27 1.952 5.257 5.257 0 0 1-1.951 1.27c-.599.232-1.497.508-3.152.584-1.79.082-2.326.099-6.859.099-4.532 0-5.069-.017-6.858-.1-1.655-.075-2.554-.351-3.152-.584a5.258 5.258 0 0 1-1.952-1.27 5.261 5.261 0 0 1-1.27-1.95c-.232-.599-.508-1.498-.584-3.153-.081-1.79-.099-2.326-.099-6.858s.018-5.069.1-6.859c.075-1.655.351-2.553.584-3.152a5.26 5.26 0 0 1 1.27-1.951 5.26 5.26 0 0 1 1.95-1.27c.599-.232 1.498-.509 3.153-.584 1.79-.082 2.326-.1 6.858-.1" mask="url(#b)"/>
    </g>
    <path fill="#F9F9F7" d="M17.5 22.842a5.842 5.842 0 1 1 0-11.684 5.842 5.842 0 0 1 0 11.684M17.5 8a9 9 0 1 0 0 18 9 9 0 0 0 0-18M28.5 8a2 2 0 1 1-4 0 2 2 0 0 1 4 0"/>
  </g>
</svg>
